<?xml version="1.0" encoding="UTF-8"?>
<svg version="1.1" xmlns="http://www.w3.org/2000/svg" width="647" height="187">
<path d="M0 0 C2.84934752 0.08483902 5.69759182 0.10530015 8.54802799 0.12370968 C11.96128469 0.14913891 15.37314358 0.21293216 18.78588867 0.27813721 C20.05876236 0.29827377 21.33163605 0.31841034 22.64308167 0.3391571 C23.82208542 0.38081497 25.00108917 0.42247284 26.21582031 0.46539307 C27.25138565 0.49572128 28.28695099 0.5260495 29.35389709 0.55729675 C32.76577897 1.27320799 33.97277354 2.37037744 36.06323242 5.12579346 C36.67068481 7.12852478 36.67068481 7.12852478 36.80981445 9.24176025 C36.8925058 10.42613174 36.8925058 10.42613174 36.97686768 11.63442993 C37.1230251 15.8506327 37.17223126 20.05179841 37.11791992 24.27032471 C37.1061673 25.20253342 37.09441467 26.13474213 37.08230591 27.09519958 C37.05377707 29.04905604 37.02165652 31.0028631 36.98608398 32.956604 C36.95404161 34.9532038 36.93297804 36.95000841 36.92260742 38.94683838 C36.90740857 41.84720642 36.86011674 44.74546463 36.80541992 47.64532471 C36.80621552 48.53701859 36.80701111 49.42871246 36.80783081 50.34742737 C36.63878505 56.4936291 36.63878505 56.4936291 33.72509766 59.69390869 C30.35673822 61.50583459 28.05289086 61.52941602 24.25073242 61.37579346 C23.08928711 61.33969971 21.9278418 61.30360596 20.73120117 61.26641846 C19.85077148 61.22001221 18.9703418 61.17360596 18.06323242 61.12579346 C18.55823242 62.07454346 19.05323242 63.02329346 19.56323242 64.00079346 C21.06323242 67.12579346 21.06323242 67.12579346 21.06323242 69.12579346 C25.68323242 69.12579346 30.30323242 69.12579346 35.06323242 69.12579346 C35.06323242 70.77579346 35.06323242 72.42579346 35.06323242 74.12579346 C10.31323242 74.12579346 -14.43676758 74.12579346 -39.93676758 74.12579346 C-40.26676758 72.80579346 -40.59676758 71.48579346 -40.93676758 70.12579346 C-39.93676758 69.12579346 -39.93676758 69.12579346 -36.97753906 69.01226807 C-35.68404541 69.01750488 -34.39055176 69.0227417 -33.05786133 69.02813721 C-32.02786766 69.03025963 -32.02786766 69.03025963 -30.97706604 69.03242493 C-28.77608957 69.03803867 -26.57521349 69.05059339 -24.37426758 69.06329346 C-22.88533675 69.06830669 -21.39640434 69.0728699 -19.9074707 69.07696533 C-16.25053683 69.08801253 -12.59366199 69.10528633 -8.93676758 69.12579346 C-8.93676758 66.48579346 -8.93676758 63.84579346 -8.93676758 61.12579346 C-9.69820068 61.14150391 -10.45963379 61.15721436 -11.24414062 61.17340088 C-14.70410698 61.23587799 -18.16395447 61.27482518 -21.62426758 61.31329346 C-22.82245117 61.33843018 -24.02063477 61.36356689 -25.25512695 61.38946533 C-26.41206055 61.3991333 -27.56899414 61.40880127 -28.76098633 61.41876221 C-29.82406006 61.43447266 -30.88713379 61.45018311 -31.98242188 61.46636963 C-35.50851376 61.05988271 -37.23504435 60.44159831 -39.93676758 58.12579346 C-42.81990855 50.9447854 -42.63474995 43.13965237 -42.80175781 35.50372314 C-42.84981567 33.84483709 -42.9247186 32.18649625 -43.02734375 30.53009033 C-43.56842589 21.66799455 -43.34566551 13.5384545 -37.31958008 6.51251221 C-27.77543313 -2.80560117 -12.34415738 -0.43592355 0 0 Z M-22.93676758 6.12579346 C-23.33617554 6.95832642 -23.33617554 6.95832642 -23.74365234 7.80767822 C-24.09741943 8.53269531 -24.45118652 9.2577124 -24.81567383 10.00469971 C-25.1644458 10.72472168 -25.51321777 11.44474365 -25.87255859 12.18658447 C-27.2139224 14.6308269 -28.4572035 15.84844226 -30.93676758 17.12579346 C-32.59831365 17.48377887 -34.26481965 17.8200501 -35.93676758 18.12579346 C-35.98613268 23.07369523 -36.02247027 28.02145429 -36.04663086 32.96954346 C-36.05670074 34.65348812 -36.07035746 36.33741525 -36.08764648 38.02130127 C-36.11185183 40.43898846 -36.12324054 42.85644489 -36.13208008 45.27423096 C-36.14240265 46.02949066 -36.15272522 46.78475037 -36.1633606 47.56289673 C-36.16376076 49.41873326 -36.05899474 51.27398626 -35.93676758 53.12579346 C-34.09530836 55.39238524 -34.09530836 55.39238524 -31.31126404 55.37303162 C-29.64366783 55.37089409 -29.64366783 55.37089409 -27.94238281 55.36871338 C-26.68445419 55.37179001 -25.42652557 55.37486664 -24.13047791 55.3780365 C-22.75210386 55.37113928 -21.37373162 55.36387235 -19.99536133 55.35626221 C-18.58814028 55.3550705 -17.18091843 55.35461722 -15.7736969 55.35487366 C-12.82385279 55.35330859 -9.87413 55.34501644 -6.92431641 55.331604 C-3.13544929 55.3145985 0.6532846 55.31079008 4.4421854 55.31154919 C7.34772523 55.31127783 10.2532357 55.30580239 13.15876579 55.29854774 C14.55627152 55.2953568 15.95378058 55.29339268 17.35128975 55.29265404 C19.300286 55.29049588 21.24926994 55.28096659 23.19824219 55.27105713 C24.864645 55.26533943 24.864645 55.26533943 26.56471252 55.25950623 C29.00372312 55.40807221 29.00372312 55.40807221 30.06323242 54.12579346 C30.16145986 52.65774054 30.19121612 51.18501886 30.19262695 49.71368408 C30.19735519 48.3071759 30.19735519 48.3071759 30.20217896 46.87225342 C30.20015472 45.85248413 30.19813049 44.83271484 30.19604492 43.78204346 C30.19748001 42.22290222 30.19748001 42.22290222 30.19894409 40.63226318 C30.19962605 38.42974792 30.19777069 36.22723066 30.19360352 34.02471924 C30.1882555 30.64039627 30.19354801 27.25620602 30.19995117 23.87188721 C30.19929039 21.73777233 30.19800924 19.60365753 30.19604492 17.46954346 C30.19908127 15.93988953 30.19908127 15.93988953 30.20217896 14.3793335 C30.19902679 13.44166138 30.19587463 12.50398926 30.19262695 11.53790283 C30.19183136 10.7081897 30.19103577 9.87847656 30.19021606 9.02362061 C30.27165794 7.11477822 30.27165794 7.11477822 29.06323242 6.12579346 C27.43648464 6.03238912 25.80569191 6.00834175 24.17626953 6.01226807 C22.61476418 6.01238136 22.61476418 6.01238136 21.02171326 6.01249695 C19.3233004 6.02023888 19.3233004 6.02023888 17.59057617 6.02813721 C16.43779678 6.02955215 15.2850174 6.0309671 14.0973053 6.03242493 C10.39842179 6.0380434 6.69959778 6.05059904 3.00073242 6.06329346 C0.50008225 6.06830608 -2.00056886 6.07286939 -4.5012207 6.07696533 C-10.64642346 6.08801884 -16.79159127 6.10477494 -22.93676758 6.12579346 Z M-2.93676758 61.12579346 C-2.93676758 63.76579346 -2.93676758 66.40579346 -2.93676758 69.12579346 C3.00323242 69.12579346 8.94323242 69.12579346 15.06323242 69.12579346 C14.40323242 67.80579346 13.74323242 66.48579346 13.06323242 65.12579346 C12.40323242 63.80579346 11.74323242 62.48579346 11.06323242 61.12579346 C6.44323242 61.12579346 1.82323242 61.12579346 -2.93676758 61.12579346 Z " fill="#1298DE" transform="translate(96.936767578125,55.87420654296875)"/>
<path d="M0 0 C1.24233398 0.0628418 1.24233398 0.0628418 2.50976562 0.12695312 C7.7472234 0.46125894 12.63955324 1.53755159 17.6875 2.9375 C17.3575 3.5975 17.0275 4.2575 16.6875 4.9375 C14.21875 5.31640625 14.21875 5.31640625 11.1875 5.5 C7.62419646 5.43071033 7.62419646 5.43071033 4.6875 6.9375 C3.16821962 7.00929964 1.64582518 7.02142007 0.125 7 C-0.70128906 6.99097656 -1.52757813 6.98195313 -2.37890625 6.97265625 C-3.01699219 6.96105469 -3.65507813 6.94945312 -4.3125 6.9375 C-4.704375 8.01 -5.09625 9.0825 -5.5 10.1875 C-7.08121893 13.84731659 -8.82398474 15.86100282 -12.3125 17.9375 C-14.9765625 18.03515625 -14.9765625 18.03515625 -17.3125 17.9375 C-17.2403125 18.53691406 -17.168125 19.13632813 -17.09375 19.75390625 C-16.22430071 28.24311252 -16.24842295 36.66274401 -16.34960938 45.18969727 C-16.35798828 46.16092529 -16.36636719 47.13215332 -16.375 48.1328125 C-16.38660156 49.00953613 -16.39820313 49.88625977 -16.41015625 50.78955078 C-16.45583779 52.98926529 -16.45583779 52.98926529 -15.3125 54.9375 C-14.11258423 54.97508423 -14.11258423 54.97508423 -12.88842773 55.01342773 C16.45898087 55.94485682 16.45898087 55.94485682 28.6875 56.9375 C28.6875 57.5975 28.6875 58.2575 28.6875 58.9375 C22.2525 59.4325 22.2525 59.4325 15.6875 59.9375 C15.6875 63.2375 15.6875 66.5375 15.6875 69.9375 C18.6575 70.2675 21.6275 70.5975 24.6875 70.9375 C24.3575 71.5975 24.0275 72.2575 23.6875 72.9375 C8.67552974 73.77039078 -6.27841419 74.07288592 -21.3125 73.9375 C-21.875 72 -21.875 72 -22.3125 69.9375 C-21.3125 68.9375 -21.3125 68.9375 -18.35327148 68.82397461 C-17.05977783 68.82921143 -15.76628418 68.83444824 -14.43359375 68.83984375 C-13.40360008 68.84196617 -13.40360008 68.84196617 -12.35279846 68.84413147 C-10.15182199 68.84974521 -7.95094591 68.86229993 -5.75 68.875 C-4.26106917 68.88001324 -2.77213676 68.88457645 -1.28320312 68.88867188 C2.37373075 68.89971907 6.03060558 68.91699287 9.6875 68.9375 C9.6875 66.2975 9.6875 63.6575 9.6875 60.9375 C8.92606689 60.95321045 8.16463379 60.9689209 7.38012695 60.98510742 C3.9201606 61.04758453 0.4603131 61.08653172 -3 61.125 C-4.19818359 61.15013672 -5.39636719 61.17527344 -6.63085938 61.20117188 C-7.78779297 61.21083984 -8.94472656 61.22050781 -10.13671875 61.23046875 C-11.19979248 61.2461792 -12.26286621 61.26188965 -13.3581543 61.27807617 C-16.88424618 60.87158926 -18.61077677 60.25330485 -21.3125 57.9375 C-24.19564097 50.75649194 -24.01048237 42.95135891 -24.17749023 35.31542969 C-24.22554809 33.65654364 -24.30045102 31.99820279 -24.40307617 30.34179688 C-24.92745396 21.75329283 -24.96467455 14.81335344 -19.11773682 8.04472351 C-13.36239582 2.25919502 -8.41477221 -1.03927466 0 0 Z " fill="#2BCE8D" transform="translate(78.3125,56.0625)"/>
<path d="M0 0 C2.625 0.3125 2.625 0.3125 4.12475586 1.96801758 C5.81466118 4.60888996 7.03007727 7.24964985 8.25390625 10.13671875 C8.73150391 11.24724609 9.20910156 12.35777344 9.70117188 13.50195312 C10.69687258 15.84531708 11.69165565 18.18907114 12.68554688 20.53320312 C13.16185547 21.63986328 13.63816406 22.74652344 14.12890625 23.88671875 C14.56017822 24.90338623 14.9914502 25.92005371 15.43579102 26.9675293 C16.40161061 29.44890491 16.40161061 29.44890491 18.625 30.3125 C18.86347656 29.53132813 19.10195313 28.75015625 19.34765625 27.9453125 C21.0025341 23.23877917 23.0142633 18.73398987 25.0625 14.1875 C25.45759766 13.29417969 25.85269531 12.40085937 26.25976562 11.48046875 C26.64712891 10.61808594 27.03449219 9.75570312 27.43359375 8.8671875 C27.95651001 7.69905518 27.95651001 7.69905518 28.48999023 6.50732422 C29.68323769 4.19988292 30.90265251 2.2597881 32.625 0.3125 C35.3125 0.0625 35.3125 0.0625 37.625 0.3125 C38.62406905 4.46354758 38.75406342 8.36175761 38.7578125 12.625 C38.75876923 13.31634033 38.75972595 14.00768066 38.76071167 14.7199707 C38.76138946 16.17561942 38.75956324 17.63127122 38.75537109 19.08691406 C38.75001712 21.3054081 38.75532966 23.5236997 38.76171875 25.7421875 C38.7610579 27.16145878 38.75977659 28.58072993 38.7578125 30 C38.75668457 31.28261719 38.75555664 32.56523438 38.75439453 33.88671875 C38.64300223 36.83588253 38.31349253 39.45187166 37.625 42.3125 C36.305 42.3125 34.985 42.3125 33.625 42.3125 C32.60249595 35.61389078 32.50743727 29.0809802 32.5625 22.3125 C32.56701172 21.25160156 32.57152344 20.19070312 32.57617188 19.09765625 C32.58786157 16.50254402 32.60424724 13.90755291 32.625 11.3125 C32.20089844 12.37726563 31.77679688 13.44203125 31.33984375 14.5390625 C27.5148209 24.03950012 23.36092137 33.2293195 18.625 42.3125 C15.625 41.3125 15.625 41.3125 14.484375 39.625 C11.38451669 33.16332353 8.61558396 26.5895381 5.94824219 19.93945312 C4.71990654 16.36365452 4.71990654 16.36365452 2.625 13.3125 C2.295 22.8825 1.965 32.4525 1.625 42.3125 C-0.025 42.3125 -1.675 42.3125 -3.375 42.3125 C-3.39964638 36.49178378 -3.4178343 30.67109766 -3.42993164 24.8503418 C-3.43497267 22.86856559 -3.44180538 20.88679311 -3.45043945 18.9050293 C-3.46251515 16.06297891 -3.46823045 13.22097753 -3.47265625 10.37890625 C-3.47781754 9.48724258 -3.48297882 8.59557892 -3.48829651 7.67689514 C-3.48849177 5.55509399 -3.4371003 3.4333922 -3.375 1.3125 C-2.375 0.3125 -2.375 0.3125 0 0 Z " fill="#20B4B9" transform="translate(375.375,66.6875)"/>
<path d="M0 0 C0.66 -0.66 1.32 -1.32 2 -2 C2.99 -2 3.98 -2 5 -2 C6.88693989 9.3820214 8.44464661 24.79660722 2.1875 34.9375 C-2.2420587 39.11394106 -6.58943369 39.42418512 -12.484375 39.3359375 C-16.37823385 38.81595014 -18.7992724 37.22659312 -22 35 C-21.67 33.68 -21.34 32.36 -21 31 C-19.68 31 -18.36 31 -17 31 C-17 31.66 -17 32.32 -17 33 C-12.95669825 33.65186128 -9.19497843 34.18184454 -5.125 33.5625 C-1.84189494 31.14845216 -1.09274992 27.82018264 0 24 C-0.99 24.350625 -1.98 24.70125 -3 25.0625 C-7.19818271 26.23290245 -10.81923958 26.30011452 -15 25 C-19.98181203 21.80412058 -22.30911926 18.66942366 -24 13 C-23.82406562 8.60164053 -22.7868862 5.41618308 -20 2 C-13.54060356 -2.47637631 -7.25276367 -3.51649148 0 0 Z M-16.5625 5 C-18.39526987 8.82491103 -19.10563937 11.84547629 -18 16 C-15.14809128 19.25932425 -13.25061619 20.73945496 -9 21.625 C-4.74938381 20.73945496 -2.85190872 19.25932425 0 16 C0.81176137 13.14444226 0.75079679 10.8645785 0 8 C-2.03795464 4.84445733 -3.46724866 3.3327325 -7.1953125 2.5234375 C-11.23879543 2.26988576 -13.31691212 2.46685824 -16.5625 5 Z " fill="#10A5DD" transform="translate(534,83)"/>
<path d="M0 0 C1.11697266 -0.00128906 2.23394531 -0.00257812 3.38476562 -0.00390625 C4.55587891 -0.00003906 5.72699219 0.00382812 6.93359375 0.0078125 C8.10857422 0.00394531 9.28355469 0.00007813 10.49414062 -0.00390625 C12.16766602 -0.00197266 12.16766602 -0.00197266 13.875 0 C14.90439697 0.00112793 15.93379395 0.00225586 16.99438477 0.00341797 C19.37109375 0.1328125 19.37109375 0.1328125 20.37109375 1.1328125 C20.44411921 3.0898947 20.45472681 5.04948238 20.43359375 7.0078125 C20.42457031 8.07773438 20.41554688 9.14765625 20.40625 10.25 C20.39464844 11.20132813 20.38304688 12.15265625 20.37109375 13.1328125 C20.21297987 16.18551713 20.21297987 16.18551713 21.37109375 19.1328125 C21.04109375 19.7928125 20.71109375 20.4528125 20.37109375 21.1328125 C17.53790516 21.30231951 14.70458387 21.46848784 11.87109375 21.6328125 C11.07960938 21.68050781 10.288125 21.72820312 9.47265625 21.77734375 C7.10591515 21.91314037 4.73948304 22.02983905 2.37109375 22.1328125 C1.24574219 22.18308594 1.24574219 22.18308594 0.09765625 22.234375 C-3.72587762 22.33241433 -5.36268473 22.31029351 -8.62890625 20.1328125 C-8.46390625 19.5140625 -8.29890625 18.8953125 -8.12890625 18.2578125 C-7.51373633 15.64334033 -7.59754925 14.25824049 -8.25390625 11.6328125 C-8.37765625 10.8078125 -8.50140625 9.9828125 -8.62890625 9.1328125 C-7.96890625 8.4728125 -7.30890625 7.8128125 -6.62890625 7.1328125 C-7.28890625 6.4728125 -7.94890625 5.8128125 -8.62890625 5.1328125 C-8.37890625 3.0703125 -8.37890625 3.0703125 -7.62890625 1.1328125 C-4.98062446 -0.1913284 -2.96210513 0.00324208 0 0 Z M11.37109375 6.1328125 C15.37109375 7.1328125 15.37109375 7.1328125 15.37109375 7.1328125 Z " fill="#27AFA0" transform="translate(100.62890625,73.8671875)"/>
<path d="M0 0 C2 0.3125 2 0.3125 4 1 C5.60670684 4.21341369 4.82510855 7.62958968 4.5625 11.125 C4.51029297 11.87910156 4.45808594 12.63320312 4.40429688 13.41015625 C4.27454996 15.2737937 4.13792512 17.13694996 4 19 C4.72316406 18.67773438 5.44632813 18.35546875 6.19140625 18.0234375 C11.71986435 16.00889505 17.04340299 16.09416805 22.375 18.5625 C26.58719205 22.47382119 28.69618678 25.83533084 29.5 31.5625 C28.74750832 36.73588032 26.28722865 39.51773671 22.9375 43.375 C18.46570193 45.84876064 14.00463826 45.61838921 9 45 C6.15625 43.9765625 6.15625 43.9765625 4 43 C4 43.66 4 44.32 4 45 C2.68 45 1.36 45 0 45 C-0.88128666 39.70615395 -1.14690582 34.61923373 -1.1328125 29.2578125 C-1.13376923 28.44883514 -1.13472595 27.63985779 -1.13571167 26.80636597 C-1.13638803 25.11049318 -1.13457199 23.41461772 -1.13037109 21.71875 C-1.12497292 19.11192116 -1.13035587 16.50526134 -1.13671875 13.8984375 C-1.13605869 12.24739545 -1.13477904 10.59635351 -1.1328125 8.9453125 C-1.13483673 8.16310333 -1.13686096 7.38089417 -1.13894653 6.57498169 C-1.11497934 1.11497934 -1.11497934 1.11497934 0 0 Z M5.875 24.5 C3.83024668 28.31687286 3.4989707 30.03999252 4.3671875 34.16796875 C5.37597987 37.08848493 6.38918952 38.32640354 9 40 C11.72264522 40.87147431 14.14549128 41.24920314 17 41 C20.48131633 38.92602432 21.71486282 37.85541154 23 34 C23.47482431 29.72658121 23.45704318 27.69293644 21.0625 24.0625 C17.50204643 21.66464351 15.38907065 21.1956177 11.1640625 21.45703125 C8.73829886 22.06566148 7.61801275 22.72290599 5.875 24.5 Z " fill="#28CD9B" transform="translate(226,64)"/>
<path d="M0 0 C0.66 0.66 1.32 1.32 2 2 C1.625 4.125 1.625 4.125 1 6 C-1.50792853 5.58201191 -3.62030814 5.20775592 -5.86328125 3.98046875 C-10.52201629 1.8427311 -16.12880745 2.34915042 -20.875 4 C-25.17722458 8.04915255 -27.21816638 12.72293178 -27.4375 18.625 C-27.20409552 23.45980704 -25.58277293 26.88963609 -22.6875 30.75 C-19.06016242 33.43691673 -15.43279787 34.23097994 -11 33.875 C-6.95064735 33.25677822 -4.36436513 31.29388532 -1 29 C1.375 29.25 1.375 29.25 3 30 C2.80087757 33.58420374 2.24006976 34.77839715 -0.4375 37.25 C-7.66473181 40.80021913 -14.49484597 40.54412001 -22 38 C-27.49048653 35.77766021 -30.42201218 31.14781746 -33 26 C-35.09516075 18.80093022 -33.79712005 12.2733258 -30.25 5.8125 C-26.23163224 0.7895403 -22.41375794 -2.51561148 -16.078125 -3.78515625 C-10.13742052 -4.39932683 -5.14229194 -3.06088806 0 0 Z " fill="#23C3A6" transform="translate(311,70)"/>
<path d="M0 0 C0.33 0 0.66 0 1 0 C1.1237709 4.6263658 1.21441516 9.25176461 1.2746582 13.87939453 C1.29977448 15.45280751 1.33387472 17.02610412 1.37719727 18.59912109 C1.43798399 20.86324772 1.46623582 23.12583022 1.48828125 25.390625 C1.51408768 26.09181458 1.5398941 26.79300415 1.56648254 27.51544189 C1.56860976 31.23518066 1.2744321 32.71033449 -1.32226562 35.45117188 C-4.70685217 37.40885031 -6.93073818 37.40683886 -10.8125 37.25 C-11.97394531 37.21390625 -13.13539062 37.1778125 -14.33203125 37.140625 C-15.21246094 37.09421875 -16.09289062 37.0478125 -17 37 C-16.505 37.94875 -16.01 38.8975 -15.5 39.875 C-14 43 -14 43 -14 45 C-9.38 45 -4.76 45 0 45 C0 46.65 0 48.3 0 50 C-17.16 50 -34.32 50 -52 50 C-52 49.67 -52 49.34 -52 49 C-44.74 48.67 -37.48 48.34 -30 48 C-32.64 47.67 -35.28 47.34 -38 47 C-39 46 -39 46 -39.1328125 43.75 C-39.13023438 42.8425 -39.12765625 41.935 -39.125 41 C-39.12886719 39.63875 -39.12886719 39.63875 -39.1328125 38.25 C-39 36 -39 36 -38 35 C-35.81360547 34.92741054 -33.62499611 34.91626217 -31.4375 34.9375 C-29.64119141 34.95103516 -29.64119141 34.95103516 -27.80859375 34.96484375 C-26.88175781 34.97644531 -25.95492187 34.98804688 -25 35 C-25 34.34 -25 33.68 -25 33 C-26.3468689 33.00870117 -26.3468689 33.00870117 -27.72094727 33.01757812 C-37.13947549 33.05161734 -46.5240936 32.84399609 -55.9375 32.5 C-57.31444473 32.45158354 -58.69139787 32.4034056 -60.06835938 32.35546875 C-63.37899603 32.23930606 -66.6895295 32.12078961 -70 32 C-70 31.67 -70 31.34 -70 31 C-48.88 31 -27.76 31 -6 31 C-6 31.66 -6 32.32 -6 33 C-10.95 33 -15.9 33 -21 33 C-21 34.65 -21 36.3 -21 38 C-20.46439453 37.26330078 -20.46439453 37.26330078 -19.91796875 36.51171875 C-17.09446905 34.28627194 -14.84781046 34.70749078 -11.3125 34.8125 C-9.54326172 34.85310547 -9.54326172 34.85310547 -7.73828125 34.89453125 C-6.83464844 34.92933594 -5.93101563 34.96414062 -5 35 C-5 34.34 -5 33.68 -5 33 C-3.68 33 -2.36 33 -1 33 C-0.67 22.11 -0.34 11.22 0 0 Z M-38 37 C-38 39.64 -38 42.28 -38 45 C-32.06 45 -26.12 45 -20 45 C-20.66 43.68 -21.32 42.36 -22 41 C-22.66 39.68 -23.32 38.36 -24 37 C-28.62 37 -33.24 37 -38 37 Z " fill="#23B7C9" transform="translate(132,80)"/>
<path d="M0 0 C1.88769531 0.05517578 1.88769531 0.05517578 4 1 C5.46386719 3.63623047 5.46386719 3.63623047 6.796875 7.1171875 C7.15462006 8.03662643 7.15462006 8.03662643 7.51959229 8.97463989 C8.02087456 10.27146402 8.51465857 11.57120786 9.00146484 12.87353516 C9.74671441 14.86621486 10.51366185 16.84938419 11.28515625 18.83203125 C15 28.50497075 15 28.50497075 15 32 C15.66 32 16.32 32 17 32 C17.2475 30.90300781 17.495 29.80601563 17.75 28.67578125 C19.08199115 23.3536793 21.02548269 18.29906746 23 13.1875 C23.35578125 12.24712891 23.7115625 11.30675781 24.078125 10.33789062 C25.50799538 6.60582222 26.77361342 3.33957986 29 0 C31.475 0.495 31.475 0.495 34 1 C31.88025319 7.55712344 29.53290096 14.00504645 27.0625 20.4375 C26.72798828 21.31470703 26.39347656 22.19191406 26.04882812 23.09570312 C25.37726242 24.85160806 24.69846892 26.60476698 24.01220703 28.35498047 C23.31606348 30.17408785 22.65748482 32.00787464 22.03076172 33.85205078 C21.70994629 34.75810059 21.38913086 35.66415039 21.05859375 36.59765625 C20.78200928 37.41886963 20.5054248 38.24008301 20.22045898 39.08618164 C19 41 19 41 16.37133789 41.77514648 C15.19752563 41.88644897 15.19752563 41.88644897 14 42 C10.35528703 36.27344175 8.26868207 30.09543008 5.9375 23.75 C5.49083984 22.56019531 5.04417969 21.37039062 4.58398438 20.14453125 C2.244619 13.81530653 0.13149621 7.66247458 -1 1 C-0.67 0.67 -0.34 0.34 0 0 Z " fill="#19C9B1" transform="translate(316,67)"/>
<path d="M0 0 C3.70947374 3.27813959 5.49630062 6.22400694 5.9375 11.1875 C5.6875 13.375 5.6875 13.375 4.6875 14.375 C3.1987814 14.46169432 1.706055 14.48203494 0.21484375 14.47265625 C-0.68427734 14.46943359 -1.58339844 14.46621094 -2.50976562 14.46289062 C-3.45529297 14.45451172 -4.40082031 14.44613281 -5.375 14.4375 C-6.32439453 14.43298828 -7.27378906 14.42847656 -8.25195312 14.42382812 C-10.60553065 14.4120011 -12.95898477 14.39552025 -15.3125 14.375 C-14.22465032 17.62483135 -14.22465032 17.62483135 -12.3125 20.375 C-10.29285801 20.44744053 -8.27082876 20.45877188 -6.25 20.4375 C-5.14527344 20.42847656 -4.04054688 20.41945313 -2.90234375 20.41015625 C-2.04769531 20.39855469 -1.19304688 20.38695313 -0.3125 20.375 C0.0175 19.385 0.3475 18.395 0.6875 17.375 C1.6775 17.705 2.6675 18.035 3.6875 18.375 C3.43060052 21.54342693 3.10479253 22.98462957 0.75 25.1875 C-4.48979181 27.21925601 -9.8835763 27.34656948 -15.125 25.25 C-21.92656673 19.42008566 -21.92656673 19.42008566 -22.73046875 15.16015625 C-22.89343773 10.49613927 -22.41134373 7.06977522 -19.3125 3.375 C-18.6525 3.375 -17.9925 3.375 -17.3125 3.375 C-16.9825 2.385 -16.6525 1.395 -16.3125 0.375 C-10.94117736 -2.7175797 -5.40378536 -2.65091357 0 0 Z M-15.3125 6.375 C-15.3125 7.695 -15.3125 9.015 -15.3125 10.375 C-14.36375 10.33375 -13.415 10.2925 -12.4375 10.25 C-9.3125 10.375 -9.3125 10.375 -7.3125 12.375 C-6.9825 11.385 -6.6525 10.395 -6.3125 9.375 C-4.3325 9.045 -2.3525 8.715 -0.3125 8.375 C-1.15647306 5.71249166 -1.15647306 5.71249166 -3.3125 3.375 C-7.98930219 2.39957757 -12.35552639 2.20490901 -15.3125 6.375 Z " fill="#1C9FDB" transform="translate(566.3125,82.625)"/>
<path d="M0 0 C2.93423195 1.79646854 4.47205355 2.9441071 6 6 C6.15175549 7.59262066 6.24900325 9.19064856 6.31640625 10.7890625 C6.35830078 11.73007813 6.40019531 12.67109375 6.44335938 13.640625 C6.48267578 14.62546875 6.52199219 15.6103125 6.5625 16.625 C6.60568359 17.61757812 6.64886719 18.61015625 6.69335938 19.6328125 C6.79961069 22.08839838 6.90164964 24.54408703 7 27 C3.98968256 27.93423645 3.13349732 28.04449911 0 27 C-0.66 27.33 -1.32 27.66 -2 28 C-7.06037384 28.62694897 -10.79361251 28.79621574 -15.125 25.9375 C-17.4780487 22.25105703 -17.70341469 20.29864534 -17 16 C-14.48257905 12.11897604 -11.36162459 11.22748165 -7.0390625 10.3046875 C-4.33884085 9.9012061 -1.72325632 9.86383718 1 10 C0.34 8.68 -0.32 7.36 -1 6 C-2.41655793 5.9727585 -3.83327045 5.95349533 -5.25 5.9375 C-6.03890625 5.92589844 -6.8278125 5.91429688 -7.640625 5.90234375 C-9.90691002 5.99614694 -11.8288895 6.36758937 -14 7 C-14.33 5.68 -14.66 4.36 -15 3 C-10.40212255 -0.67830196 -5.64210698 -0.86160254 0 0 Z M-11 17 C-11.9049261 18.9519572 -11.9049261 18.9519572 -12 21 C-11.67 21.66 -11.34 22.32 -11 23 C-7.76902047 23.86159454 -5.77513726 24.30597523 -2.625 23.0625 C-2.08875 22.711875 -1.5525 22.36125 -1 22 C-1.33 20.68 -1.66 19.36 -2 18 C-1.01 18 -0.02 18 1 18 C0.67 17.01 0.34 16.02 0 15 C-5.86350756 14.6245865 -5.86350756 14.6245865 -11 17 Z " fill="#1EA3CA" transform="translate(498,81)"/>
<path d="M0 0 C3.29947706 1.25722471 3.95490733 1.93236099 6 5 C7.16829935 12.24125163 7.1457289 19.68117064 7 27 C5.68 27.33 4.36 27.66 3 28 C3 27.34 3 26.68 3 26 C2.360625 26.33 1.72125 26.66 1.0625 27 C-3.58281423 28.5168373 -8.36033888 29.2551858 -12.9140625 27.08984375 C-15.71837785 25.02315637 -16.91137807 23.38671386 -17.6875 20 C-16.75624243 15.93633062 -15.29415948 14.52318599 -12 12 C-7.55451657 10.3026336 -3.74011418 9.76877492 1 10 C1 8.68 1 7.36 1 6 C-0.74991334 5.97284617 -2.49994945 5.95353449 -4.25 5.9375 C-5.22453125 5.92589844 -6.1990625 5.91429688 -7.203125 5.90234375 C-9.65758678 5.98804423 -11.66168914 6.29293934 -14 7 C-14.33 5.68 -14.66 4.36 -15 3 C-10.41072753 -0.67141797 -5.63222282 -0.70517261 0 0 Z M-11 18 C-10.67 19.65 -10.34 21.3 -10 23 C-6.67707176 24.04434887 -5.43241099 24.2162055 -2.25 22.625 C-0.13601104 21.18908852 -0.13601104 21.18908852 1 20 C1.04063832 18.33382885 1.042721 16.66611905 1 15 C-5.63323955 14.49390584 -5.63323955 14.49390584 -11 18 Z " fill="#16B1C7" transform="translate(437,81)"/>
<path d="M0 0 C4.03843343 2.60254599 6.29289779 5.25369336 7.8125 9.8125 C8.39950933 15.91739702 7.27704979 18.943403 3.8125 23.8125 C0.59149788 26.83828987 -2.35355649 27.06478836 -6.625 27.25 C-11.60512684 27.08265703 -14.51382044 26.39657762 -18.1875 22.8125 C-20.66749862 19.55244247 -22.20869088 16.62886091 -22.16015625 12.46875 C-21.24383543 7.23263103 -19.49091397 4.11512002 -15.1875 0.8125 C-10.17230565 -1.95905477 -5.33097696 -1.98605024 0 0 Z M-14.1875 5.8125 C-16.25118888 8.90803332 -16.19616268 10.647909 -16 14.375 C-15.01398904 18.66199659 -15.01398904 18.66199659 -12.1875 21.8125 C-7.57714842 23.00777634 -4.37299559 23.20421176 -0.1875 20.8125 C2.63545774 16.5780634 2.47276581 12.78487212 1.8125 7.8125 C-0.07374303 4.94820504 -1.36777324 4.14482166 -4.5 2.875 C-8.38855181 2.78456856 -10.82673929 3.91018262 -14.1875 5.8125 Z " fill="#1DD699" transform="translate(212.1875,82.1875)"/>
<path d="M0 0 C11.05694276 -0.1139891 21.97636372 0.08949317 33 1 C33 1.66 33 2.32 33 3 C26.565 3.495 26.565 3.495 20 4 C20 7.3 20 10.6 20 14 C22.97 14.33 25.94 14.66 29 15 C28.67 15.66 28.34 16.32 28 17 C12.98802974 17.83289078 -1.96591419 18.13538592 -17 18 C-17.5625 16.0625 -17.5625 16.0625 -18 14 C-17 13 -17 13 -14.04077148 12.88647461 C-12.74727783 12.89171143 -11.45378418 12.89694824 -10.12109375 12.90234375 C-9.09110008 12.90446617 -9.09110008 12.90446617 -8.04029846 12.90663147 C-5.83932199 12.91224521 -3.63844591 12.92479993 -1.4375 12.9375 C0.05143083 12.94251324 1.54036324 12.94707645 3.02929688 12.95117188 C6.68623075 12.96221907 10.34310558 12.97949287 14 13 C14 10.36 14 7.72 14 5 C13.23333008 5.01047363 12.46666016 5.02094727 11.67675781 5.03173828 C8.20120526 5.07332699 4.72570509 5.09933551 1.25 5.125 C0.0434375 5.14175781 -1.163125 5.15851563 -2.40625 5.17578125 C-3.56640625 5.18222656 -4.7265625 5.18867187 -5.921875 5.1953125 C-6.99018555 5.20578613 -8.05849609 5.21625977 -9.15917969 5.22705078 C-11.97979105 5.00161519 -13.60787463 4.45848994 -16 3 C-13.35177988 1.67588994 -11.51061806 1.98107599 -8.5546875 2.12109375 C-7.47832031 2.16943359 -6.40195313 2.21777344 -5.29296875 2.26757812 C-4.16503906 2.32365234 -3.03710938 2.37972656 -1.875 2.4375 C-0.73933594 2.48970703 0.39632812 2.54191406 1.56640625 2.59570312 C4.37786631 2.72564456 7.18899465 2.86061914 10 3 C10 2.34 10 1.68 10 1 C6.7 1 3.4 1 0 1 C0 0.67 0 0.34 0 0 Z " fill="#07D4BE" transform="translate(74,112)"/>
<path d="M0 0 C0.99 0 1.98 0 3 0 C3.66 0.66 4.32 1.32 5 2 C5.99 1.34 6.98 0.68 8 0 C12.25844672 -0.34342312 14.93499621 -0.43989287 18.875 1.1875 C21.51326439 3.43778433 22.02488639 4.65675335 23 8 C23.23478325 11.27562855 23.18862926 14.53069869 23.125 17.8125 C23.11597656 18.69615234 23.10695313 19.57980469 23.09765625 20.49023438 C23.07419637 22.66027359 23.03832865 24.83017247 23 27 C21.35 27.33 19.7 27.66 18 28 C17.97494385 27.44014404 17.9498877 26.88028809 17.92407227 26.3034668 C17.80796255 23.76458695 17.6853042 21.22606447 17.5625 18.6875 C17.52318359 17.80642578 17.48386719 16.92535156 17.44335938 16.01757812 C17.40146484 15.17001953 17.35957031 14.32246094 17.31640625 13.44921875 C17.27974854 12.66893311 17.24309082 11.88864746 17.20532227 11.0847168 C17.05874737 8.80670899 17.05874737 8.80670899 16 6 C14.1128125 5.8453125 14.1128125 5.8453125 12.1875 5.6875 C11.47980469 5.62949219 10.77210938 5.57148437 10.04296875 5.51171875 C7.800703 5.83665674 7.800703 5.83665674 6.28125 8 C4.6430795 11.83571629 4.44168285 15.18233981 4.3125 19.3125 C4.27833984 20.05306641 4.24417969 20.79363281 4.20898438 21.55664062 C4.12706446 23.37058164 4.06184178 25.18526353 4 27 C2.34385343 27.38218767 0.67542976 27.71395102 -1 28 C-3.46209712 25.53790288 -2.18550831 18.99569976 -2.1875 15.6875 C-2.19974609 14.62853516 -2.21199219 13.56957031 -2.22460938 12.47851562 C-2.22654297 11.45822266 -2.22847656 10.43792969 -2.23046875 9.38671875 C-2.23457764 8.45045654 -2.23868652 7.51419434 -2.24291992 6.54956055 C-1.99069949 3.90238674 -1.34525753 2.27030953 0 0 Z " fill="#27A3C1" transform="translate(452,81)"/>
<path d="M0 0 C2.125 0.375 2.125 0.375 4 1 C4.07447267 5.58980814 4.12875322 10.17926014 4.16479492 14.76953125 C4.17982869 16.32916394 4.20026135 17.88875472 4.22631836 19.44824219 C4.26294211 21.69737116 4.27978021 23.94593847 4.29296875 26.1953125 C4.30845261 26.8861795 4.32393646 27.57704651 4.33988953 28.28884888 C4.34148549 32.93906411 3.4129623 36.03938326 1 40 C-1.4567608 42.4567608 -3.44148074 42.69016356 -6.8359375 43.0234375 C-10.5018414 42.98373457 -12.90118954 41.88359067 -16 40 C-17.9375 36.8125 -17.9375 36.8125 -19 34 C-17.68 33.34 -16.36 32.68 -15 32 C-14.29875 32.845625 -13.5975 33.69125 -12.875 34.5625 C-10.21485105 37.36243122 -10.21485105 37.36243122 -6.75 36.9375 C-3.86381294 36.31285945 -3.86381294 36.31285945 -3 34 C-2.86852835 31.62722329 -2.79706178 29.25102435 -2.75390625 26.875 C-2.72097912 25.43228534 -2.68776729 23.98957716 -2.65429688 22.546875 C-2.60679854 20.26892387 -2.56234534 17.99100111 -2.52319336 15.71289062 C-2.48356807 13.51665323 -2.4320142 11.32094683 -2.37890625 9.125 C-2.34132202 7.14886719 -2.34132202 7.14886719 -2.30297852 5.1328125 C-2 2 -2 2 0 0 Z " fill="#22CE8E" transform="translate(180,67)"/>
<path d="M0 0 C3.54153072 1.66660269 4.51452833 3.83934867 5.8125 7.375 C6.85964965 10.89410949 7.48512887 13.49933908 6 17 C2.57670149 19.28219901 1.15862332 19.29741163 -2.875 19.3125 C-3.90367188 19.32925781 -4.93234375 19.34601563 -5.9921875 19.36328125 C-9.3553662 18.95707915 -11.2479883 17.92437719 -14 16 C-13.25226378 10.20504426 -11.01761872 4.21287214 -7.0625 -0.125 C-4.2540217 -1.31647564 -2.85970228 -1.0008958 0 0 Z M-4 5 C-5.47047336 8.91063224 -5.47047336 8.91063224 -6 13 C-4.02 13 -2.04 13 0 13 C-0.66 10.36 -1.32 7.72 -2 5 C-2.66 5 -3.32 5 -4 5 Z " fill="#16D5A9" transform="translate(79,75)"/>
<path d="M0 0 C0.66 -0.66 1.32 -1.32 2 -2 C2.99 -2 3.98 -2 5 -2 C5.99250545 3.70690634 6.10477512 9.21408489 6 15 C5.34 15 4.68 15 4 15 C4 10.38 4 5.76 4 1 C3.34 1 2.68 1 2 1 C1.22618646 4.78308841 1.04651203 7.30523411 2 11 C1.5625 13.75 1.5625 13.75 1 16 C0.67 16 0.34 16 0 16 C-0.10957031 15.30132812 -0.21914063 14.60265625 -0.33203125 13.8828125 C-0.49058594 12.97273438 -0.64914062 12.06265625 -0.8125 11.125 C-0.96332031 10.22007813 -1.11414063 9.31515625 -1.26953125 8.3828125 C-1.83051301 5.65587522 -1.83051301 5.65587522 -5 4 C-8.97871574 3.38012762 -12.7323473 3.07807077 -16.0625 5.5 C-17.40798919 9.08797117 -17.8039013 12.22784776 -17 16 C-15.12804555 18.69788858 -15.12804555 18.69788858 -12 20 C-9.23847356 20.30626911 -6.79465924 20.18946842 -4 20 C-4.33 20.66 -4.66 21.32 -5 22 C-7.31 22 -9.62 22 -12 22 C-10.74458443 24.51083114 -9.49936512 24.87125446 -7 26 C-13.30531475 25.67386303 -16.51089048 24.8023032 -21 20 C-23.04857469 16.36543201 -24.04212051 14.05301263 -23.875 9.875 C-22.36788751 4.92305896 -20.81864207 2.20599708 -16.25 -0.3125 C-10.5395656 -2.90053174 -5.64797485 -2.73841205 0 0 Z " fill="#1EA0D0" transform="translate(534,83)"/>
<path d="M0 0 C2 0.3125 2 0.3125 4 1 C5.60670684 4.21341369 4.82510855 7.62958968 4.5625 11.125 C4.51029297 11.87910156 4.45808594 12.63320312 4.40429688 13.41015625 C4.27454996 15.2737937 4.13792512 17.13694996 4 19 C4.721875 18.67902344 5.44375 18.35804687 6.1875 18.02734375 C10.47884604 16.4598104 14.49559355 16.26036019 19 17 C22.34625024 19.52676039 23.67977847 21.03933542 25 25 C20.25 24.125 20.25 24.125 18 23 C16.16871229 22.90391392 14.33380041 22.87017421 12.5 22.875 C11.5203125 22.87242188 10.540625 22.86984375 9.53125 22.8671875 C7.00568946 22.83059947 7.00568946 22.83059947 5 24 C4.06750386 26.79748841 3.86523848 28.54320881 3.875 31.4375 C3.87242187 32.19933594 3.86984375 32.96117187 3.8671875 33.74609375 C3.91279707 36.00427341 3.91279707 36.00427341 4.6328125 38.09765625 C5 40 5 40 3 43 C2.34 43 1.68 43 1 43 C1 37.72 1 32.44 1 27 C0.34 26.67 -0.32 26.34 -1 26 C-1.02886751 21.85418113 -1.04675327 17.70838784 -1.0625 13.5625 C-1.07087891 12.37849609 -1.07925781 11.19449219 -1.08789062 9.97460938 C-1.09111328 8.84990234 -1.09433594 7.72519531 -1.09765625 6.56640625 C-1.10289307 5.52427979 -1.10812988 4.48215332 -1.11352539 3.40844727 C-1 1 -1 1 0 0 Z " fill="#19D7A0" transform="translate(226,64)"/>
<path d="M0 0 C3.59120069 0.75604225 6.75563155 0.04290527 10.375 -0.5 C10.705 0.16 11.035 0.82 11.375 1.5 C9.375 4.5 9.375 4.5 6.3125 5.5 C5.343125 5.83 4.37375 6.16 3.375 6.5 C2.51080777 9.09257669 2.19919068 10.84037707 2.05859375 13.51171875 C2.01669922 14.26904297 1.97480469 15.02636719 1.93164062 15.80664062 C1.89232422 16.59232422 1.85300781 17.37800781 1.8125 18.1875 C1.76931641 18.98478516 1.72613281 19.78207031 1.68164062 20.60351562 C1.57572632 22.56881447 1.47487449 24.53438496 1.375 26.5 C-0.275 26.83 -1.925 27.16 -3.625 27.5 C-6.78833613 21.8610095 -8.14559655 17.23241281 -6.91796875 10.7890625 C-6.55316406 9.57992187 -6.18835938 8.37078125 -5.8125 7.125 C-5.45542969 5.90039062 -5.09835937 4.67578125 -4.73046875 3.4140625 C-3.07624654 -0.9465374 -3.07624654 -0.9465374 0 0 Z " fill="#1795DD" transform="translate(581.625,81.5)"/>
<path d="M0 0 C0.33 0.66 0.66 1.32 1 2 C1.99 2 2.98 2 4 2 C3 5 3 5 1 6 C0.67 18.21 0.34 30.42 0 43 C2.77641555 43.92547185 4.99289564 44.27208142 7.88671875 44.53515625 C8.82451172 44.62216797 9.76230469 44.70917969 10.72851562 44.79882812 C11.70498047 44.88583984 12.68144531 44.97285156 13.6875 45.0625 C14.67556641 45.15337891 15.66363281 45.24425781 16.68164062 45.33789062 C19.12082148 45.56177679 21.56025587 45.78235239 24 46 C24 46.66 24 47.32 24 48 C20.06263877 48.08696177 16.12552372 48.14037835 12.1875 48.1875 C11.06794922 48.21263672 9.94839844 48.23777344 8.79492188 48.26367188 C7.72177734 48.27333984 6.64863281 48.28300781 5.54296875 48.29296875 C4.55321045 48.3086792 3.56345215 48.32438965 2.54370117 48.34057617 C-0.48521367 47.93503474 -1.14431419 47.36227404 -3 45 C-3.38095093 43.06494141 -3.38095093 43.06494141 -3.38818359 40.8515625 C-3.39764008 40.02060059 -3.40709656 39.18963867 -3.4168396 38.33349609 C-3.41076691 37.43969238 -3.40469421 36.54588867 -3.3984375 35.625 C-3.40130768 34.70412598 -3.40417786 33.78325195 -3.40713501 32.83447266 C-3.40917631 30.88768906 -3.40364183 28.94088498 -3.39111328 26.99414062 C-3.37506056 24.01125301 -3.39095972 21.02972039 -3.41015625 18.046875 C-3.40817383 16.156247 -3.40433018 14.26561985 -3.3984375 12.375 C-3.40451019 11.48119629 -3.41058289 10.58739258 -3.4168396 9.66650391 C-3.40738312 8.83554199 -3.39792664 8.00458008 -3.38818359 7.1484375 C-3.38579681 6.41802246 -3.38341003 5.68760742 -3.38095093 4.93505859 C-2.8987494 2.4856927 -1.87924963 1.57997338 0 0 Z " fill="#06F795" transform="translate(60,67)"/>
<path d="M0 0 C3.97915159 -0.02886984 7.95827653 -0.04675406 11.9375 -0.0625 C13.07380859 -0.07087891 14.21011719 -0.07925781 15.38085938 -0.08789062 C16.46044922 -0.09111328 17.54003906 -0.09433594 18.65234375 -0.09765625 C20.15269165 -0.10551147 20.15269165 -0.10551147 21.68334961 -0.11352539 C24 0 24 0 25 1 C25.09873816 2.99799572 25.12971799 4.99957158 25.125 7 C25.12886719 8.6396875 25.12886719 8.6396875 25.1328125 10.3125 C25 13 25 13 24 14 C21.64686445 14.07271741 19.29166332 14.08370868 16.9375 14.0625 C15.64714844 14.05347656 14.35679688 14.04445313 13.02734375 14.03515625 C12.02832031 14.02355469 11.02929688 14.01195313 10 14 C10.66 13.67 11.32 13.34 12 13 C11.649375 12.21625 11.29875 11.4325 10.9375 10.625 C10.628125 9.75875 10.31875 8.8925 10 8 C10.33 7.34 10.66 6.68 11 6 C10.01 6 9.02 6 8 6 C8.33 4.35 8.66 2.7 9 1 C6.03 1 3.06 1 0 1 C0 0.67 0 0.34 0 0 Z M16 6 C20 7 20 7 20 7 Z " fill="#249CC6" transform="translate(96,74)"/>
<path d="M0 0 C5.78408559 -0.0494009 11.56804864 -0.08572 17.35229492 -0.10986328 C19.32041564 -0.11992707 21.28852138 -0.13357934 23.2565918 -0.15087891 C26.08385918 -0.17511059 28.91092905 -0.18647923 31.73828125 -0.1953125 C32.61962234 -0.20563507 33.50096344 -0.21595764 34.40901184 -0.22659302 C35.22963608 -0.22674408 36.05026031 -0.22689514 36.89575195 -0.22705078 C37.61745071 -0.231492 38.33914948 -0.23593323 39.0827179 -0.24050903 C41 0 41 0 44 2 C43.67 2.66 43.34 3.32 43 4 C42.505 3.505 42.505 3.505 42 3 C39.66702567 2.95907063 37.33294775 2.95758277 35 3 C35.99 3.66 36.98 4.32 38 5 C31.52930978 5.96714943 25.22459651 6.15078736 18.6875 6.125 C17.71876953 6.12886719 16.75003906 6.13273437 15.75195312 6.13671875 C9.11820288 6.12786785 2.59490891 5.70847058 -4 5 C-4 4.67 -4 4.34 -4 4 C1.445 3.505 1.445 3.505 7 3 C4.69 2.34 2.38 1.68 0 1 C0 0.67 0 0.34 0 0 Z " fill="#25A9C4" transform="translate(88,57)"/>
<path d="M0 0 C2.79296875 1.35546875 2.79296875 1.35546875 5 4 C5.61617545 7.60099056 5.47000528 11.11041649 5.3125 14.75 C5.28994141 15.73355469 5.26738281 16.71710938 5.24414062 17.73046875 C5.18528805 20.1551947 5.10313431 22.57681983 5 25 C4.34 25 3.68 25 3 25 C3 24.34 3 23.68 3 23 C2.34 23 1.68 23 1 23 C0.67 20.03 0.34 17.06 0 14 C-2.64 14 -5.28 14 -8 14 C-8.33 13.34 -8.66 12.68 -9 12 C-5.37 12 -1.74 12 2 12 C1.67 9.69 1.34 7.38 1 5 C-0.75032844 5.14183696 -2.50025534 5.28863429 -4.25 5.4375 C-5.71179688 5.55931641 -5.71179688 5.55931641 -7.203125 5.68359375 C-9.56461753 5.95074584 -11.71901065 6.35371968 -14 7 C-14.33 5.68 -14.66 4.36 -15 3 C-10.53455929 -0.57235257 -5.50387251 -1.0921747 0 0 Z " fill="#12ACD6" transform="translate(498,81)"/>
<path d="M0 0 C3.29947706 1.25722471 3.95490733 1.93236099 6 5 C6.125 8.1875 6.125 8.1875 6 11 C2.20298927 12.26567024 -1.43072313 12.41951679 -5.40625 12.71875 C-8.11146303 12.91931261 -8.11146303 12.91931261 -11 14 C-10.7834375 14.804375 -10.7834375 14.804375 -10.5625 15.625 C-9.90546252 18.39915827 -9.44780052 21.18525388 -9 24 C-9.99 24 -10.98 24 -12 24 C-13.125 18.25 -13.125 18.25 -12 16 C-15.22404978 17.66954819 -15.22404978 17.66954819 -15.6875 20.625 C-15.790625 21.40875 -15.89375 22.1925 -16 23 C-16.33 23 -16.66 23 -17 23 C-17.45782446 19.06270961 -17.35642392 17.47523189 -14.9375 14.25 C-9.96771508 10.44335623 -5.15742402 9.69963785 1 10 C1 8.68 1 7.36 1 6 C-0.74991334 5.97284617 -2.49994945 5.95353449 -4.25 5.9375 C-5.22453125 5.92589844 -6.1990625 5.91429688 -7.203125 5.90234375 C-9.65758678 5.98804423 -11.66168914 6.29293934 -14 7 C-14.33 5.68 -14.66 4.36 -15 3 C-10.41072753 -0.67141797 -5.63222282 -0.70517261 0 0 Z " fill="#1EAEC2" transform="translate(437,81)"/>
<path d="M0 0 C2.475 0.495 2.475 0.495 5 1 C2.88025319 7.55712344 0.53290096 14.00504645 -1.9375 20.4375 C-2.27201172 21.31470703 -2.60652344 22.19191406 -2.95117188 23.09570312 C-3.62273758 24.85160806 -4.30153108 26.60476698 -4.98779297 28.35498047 C-5.68393652 30.17408785 -6.34251518 32.00787464 -6.96923828 33.85205078 C-7.29005371 34.75810059 -7.61086914 35.66415039 -7.94140625 36.59765625 C-8.21799072 37.41886963 -8.4945752 38.24008301 -8.77954102 39.08618164 C-10 41 -10 41 -12.62866211 41.77514648 C-13.80247437 41.88644897 -13.80247437 41.88644897 -15 42 C-14.401875 41.505 -13.80375 41.01 -13.1875 40.5 C-10.78333362 37.75238127 -9.88841916 35.50804895 -8.7265625 32.10546875 C-7.65270773 28.99359928 -6.31904506 26.01496013 -5 23 C-5.99 23 -6.98 23 -8 23 C-8.66 25.31 -9.32 27.62 -10 30 C-11.06764079 26.78855087 -10.95806989 25.07906044 -9.70703125 21.953125 C-9.40603516 21.19 -9.10503906 20.426875 -8.79492188 19.640625 C-8.47072266 18.85171875 -8.14652344 18.0628125 -7.8125 17.25 C-7.35520508 16.08984375 -7.35520508 16.08984375 -6.88867188 14.90625 C-4.84324588 9.79482907 -2.51974203 4.89422178 0 0 Z " fill="#24BBAC" transform="translate(345,67)"/>
<path d="M0 0 C1.65 0 3.3 0 5 0 C7.03435531 3.72965139 8 5.66905042 8 10 C8.66 10 9.32 10 10 10 C10.33 12.64 10.66 15.28 11 18 C10.34 17.67 9.68 17.34 9 17 C8.375 14.4375 8.375 14.4375 8 12 C7.01 11.67 6.02 11.34 5 11 C5 10.34 5 9.68 5 9 C4.34 9 3.68 9 3 9 C3 18.57 3 28.14 3 38 C2.01 38 1.02 38 0 38 C0 25.46 0 12.92 0 0 Z " fill="#0BCAC3" transform="translate(373,69)"/>
<path d="M0 0 C8.91 0 17.82 0 27 0 C27 3.3 27 6.6 27 10 C22.545 10.495 22.545 10.495 18 11 C18 11.99 18 12.98 18 14 C10.41 14 2.82 14 -5 14 C-5.33 12.68 -5.66 11.36 -6 10 C-5 9 -5 9 -2.04077148 8.88647461 C-0.74727783 8.89171143 0.54621582 8.89694824 1.87890625 8.90234375 C2.90889992 8.90446617 2.90889992 8.90446617 3.95970154 8.90663147 C6.16067801 8.91224521 8.36155409 8.92479993 10.5625 8.9375 C12.05143083 8.94251324 13.54036324 8.94707645 15.02929688 8.95117188 C18.68623075 8.96221907 22.34310558 8.97949287 26 9 C26 6.36 26 3.72 26 1 C17.42 1 8.84 1 0 1 C0 0.67 0 0.34 0 0 Z " fill="#23D5A3" transform="translate(62,116)"/>
<path d="M0 0 C0.92251199 2.76753598 1.01711837 5.18031511 0.9375 8.0625 C0.64546944 12.05474774 0.64546944 12.05474774 3 15 C3.66 13.68 4.32 12.36 5 11 C5.36738281 11.65484375 5.73476563 12.3096875 6.11328125 12.984375 C7.87923182 15.29716453 7.87923182 15.29716453 10.91796875 15.390625 C12.53638672 15.32101563 12.53638672 15.32101563 14.1875 15.25 C15.27417969 15.21390625 16.36085938 15.1778125 17.48046875 15.140625 C18.31191406 15.09421875 19.14335938 15.0478125 20 15 C20.33 14.01 20.66 13.02 21 12 C21.99 12.33 22.98 12.66 24 13 C23.74310052 16.16842693 23.41729253 17.60962957 21.0625 19.8125 C15.82270819 21.84425601 10.4289237 21.97156948 5.1875 19.875 C-1.66467066 14.00171086 -1.66467066 14.00171086 -2.3828125 9.71484375 C-2.47808339 5.5297296 -2.38336254 3.57504381 0 0 Z " fill="#2696CD" transform="translate(546,88)"/>
<path d="M0 0 C4.95 0 9.9 0 15 0 C15 0.33 15 0.66 15 1 C10.38 1 5.76 1 1 1 C1 3.64 1 6.28 1 9 C6.94 9 12.88 9 19 9 C19 9.66 19 10.32 19 11 C17.02 11 15.04 11 13 11 C13 11.66 13 12.32 13 13 C21.25 13 29.5 13 38 13 C38 12.01 38 11.02 38 10 C33.71 10 29.42 10 25 10 C25 9.67 25 9.34 25 9 C29.62 9 34.24 9 39 9 C39 10.65 39 12.3 39 14 C21.84 14 4.68 14 -13 14 C-13 13.67 -13 13.34 -13 13 C-5.74 12.67 1.52 12.34 9 12 C6.36 11.67 3.72 11.34 1 11 C0 10 0 10 -0.09765625 7.71484375 C-0.04882812 3.85742188 -0.04882812 3.85742188 0 0 Z " fill="#29ADC0" transform="translate(93,116)"/>
<path d="M0 0 C1.00998047 0.00064453 2.01996094 0.00128906 3.06054688 0.00195312 C4.64125977 0.02612305 4.64125977 0.02612305 6.25390625 0.05078125 C7.82881836 0.04594727 7.82881836 0.04594727 9.43554688 0.04101562 C17.9710158 0.10085639 17.9710158 0.10085639 21.81640625 2.36328125 C20.11551406 4.06417344 17.82994472 3.69075389 15.50390625 3.86328125 C11.55979302 4.14996431 11.55979302 4.14996431 7.6953125 4.921875 C4.66253054 5.63435808 1.84607488 4.88764697 -1.18359375 4.36328125 C-2.17359375 6.67328125 -3.16359375 8.98328125 -4.18359375 11.36328125 C-5.17359375 11.36328125 -6.16359375 11.36328125 -7.18359375 11.36328125 C-7.18359375 12.02328125 -7.18359375 12.68328125 -7.18359375 13.36328125 C-7.84359375 13.36328125 -8.50359375 13.36328125 -9.18359375 13.36328125 C-9.09625799 11.75811028 -8.98807151 10.15406463 -8.87109375 8.55078125 C-8.81308594 7.65746094 -8.75507812 6.76414062 -8.6953125 5.84375 C-7.64278257 0.74179195 -4.86678042 -0.01572809 0 0 Z " fill="#09E6A5" transform="translate(74.18359375,57.63671875)"/>
<path d="M0 0 C0.33 0 0.66 0 1 0 C0.67 2.31 0.34 4.62 0 7 C1.32 6.67 2.64 6.34 4 6 C2.50452468 9.07403261 1.24807656 10.82453122 -1.5625 12.8125 C-6.7448398 14.60276284 -12.01389467 15.22520485 -17.19921875 13.09765625 C-19.125 12 -19.125 12 -22 10 C-21.67 8.68 -21.34 7.36 -21 6 C-19.68 6 -18.36 6 -17 6 C-17 6.66 -17 7.32 -17 8 C-9.69268171 9.40864764 -9.69268171 9.40864764 -3 7 C-1.69343682 4.7042574 -0.88412918 2.51278819 0 0 Z " fill="#12A7DC" transform="translate(534,108)"/>
<path d="M0 0 C3.72957068 3.29589967 5.54832286 6.24095045 5.875 11.25 C5.7821875 12.301875 5.7821875 12.301875 5.6875 13.375 C3.6875 10.375 3.6875 10.375 3.1875 8.25 C2.94 7.321875 2.94 7.321875 2.6875 6.375 C2.0275 6.045 1.3675 5.715 0.6875 5.375 C0.89375 6.15875 1.1 6.9425 1.3125 7.75 C1.43625 8.61625 1.56 9.4825 1.6875 10.375 C1.0275 11.035 0.3675 11.695 -0.3125 12.375 C-0.3125 11.715 -0.3125 11.055 -0.3125 10.375 C-2.2925 10.375 -4.2725 10.375 -6.3125 10.375 C-3.3125 8.375 -3.3125 8.375 -1.3125 7.375 C-1.9725 6.385 -2.6325 5.395 -3.3125 4.375 C-5.44963301 3.97328827 -5.44963301 3.97328827 -7.8125 4.125 C-8.6065625 4.14046875 -9.400625 4.1559375 -10.21875 4.171875 C-12.36985328 4.25419478 -12.36985328 4.25419478 -14.3125 5.375 C-13.9825 4.055 -13.6525 2.735 -13.3125 1.375 C-15.2925 2.365 -15.2925 2.365 -17.3125 3.375 C-16.3125 0.375 -16.3125 0.375 -14.25 -0.8125 C-8.84216543 -2.30828403 -4.98539759 -2.44566674 0 0 Z " fill="#1F97D4" transform="translate(566.3125,82.625)"/>
<path d="M0 0 C2.31 0.33 4.62 0.66 7 1 C4.92446352 1.5534764 3.15634036 2 1 2 C0.608125 3.0725 0.21625 4.145 -0.1875 5.25 C-1.76871893 8.90981659 -3.51148474 10.92350282 -7 13 C-9.6640625 13.09765625 -9.6640625 13.09765625 -12 13 C-11.9278125 13.5878125 -11.855625 14.175625 -11.78125 14.78125 C-10.60463599 26.15518539 -10.90996094 37.5802764 -11 49 C-11.66 49 -12.32 49 -13 49 C-13.09895826 43.80393014 -13.17150993 38.60841002 -13.21972656 33.41162109 C-13.2398285 31.64427128 -13.26711472 29.87698787 -13.30175781 28.10986328 C-13.35034009 25.56786715 -13.37298226 23.02675104 -13.390625 20.484375 C-13.41127014 19.69569031 -13.43191528 18.90700562 -13.45318604 18.09442139 C-13.45470477 14.37219988 -13.3401694 12.42517073 -10.97558594 9.46972656 C-9.9976709 8.74221191 -9.9976709 8.74221191 -9 8 C-9.99 8 -10.98 8 -12 8 C-11.25 6.0625 -11.25 6.0625 -10 4 C-7.875 3.25 -7.875 3.25 -6 3 C-6.57584432 5.38564077 -7.22227595 7.66682784 -8 10 C-7.34 10 -6.68 10 -6 10 C-6 9.34 -6 8.68 -6 8 C-5.01 7.67 -4.02 7.34 -3 7 C-1.28432339 3.49705129 -1.28432339 3.49705129 0 0 Z " fill="#1DC58F" transform="translate(73,61)"/>
<path d="M0 0 C0.33 0 0.66 0 1 0 C1.0741916 5.62334306 1.12862179 11.2464008 1.16479492 16.87011719 C1.17987558 18.78292809 1.2003431 20.69570446 1.22631836 22.60839844 C1.26273347 25.3588107 1.27973349 28.10876554 1.29296875 30.859375 C1.30845261 31.71368103 1.32393646 32.56798706 1.33988953 33.44818115 C1.34089384 36.99631051 1.33417691 39.36074776 -0.32885742 42.54199219 C-3.53965071 45.3432862 -7.90775846 44.49466449 -11.96875 44.53125 C-15.10898859 44.69818122 -15.10898859 44.69818122 -16.90625 47.03125 C-17.44765625 48.00578125 -17.44765625 48.00578125 -18 49 C-19.125 44.25 -19.125 44.25 -18 42 C-13.05 42 -8.1 42 -3 42 C-2.855625 40.040625 -2.71125 38.08125 -2.5625 36.0625 C-2.125 30.125 -2.125 30.125 -1 29 C-0.84141158 26.85613343 -0.74870702 24.70733162 -0.68359375 22.55859375 C-0.64169922 21.25341797 -0.59980469 19.94824219 -0.55664062 18.60351562 C-0.51682392 17.2148467 -0.47711175 15.82617478 -0.4375 14.4375 C-0.39432011 13.04490817 -0.350706 11.65232972 -0.30664062 10.25976562 C-0.20014124 6.83995199 -0.09813077 3.42006237 0 0 Z " fill="#08A4F0" transform="translate(129,71)"/>
<path d="M0 0 C1.98 0 3.96 0 6 0 C6.70365602 1.5552912 7.38729378 3.11964827 8.0625 4.6875 C8.44535156 5.55761719 8.82820313 6.42773438 9.22265625 7.32421875 C10.10429594 10.35900865 9.99317132 12.02048605 9 15 C6.9375 16.3125 6.9375 16.3125 5 17 C0.72901835 11.98623893 0.74961652 6.31819642 0 0 Z " fill="#1BA4C8" transform="translate(76,77)"/>
<path d="M0 0 C0.99 0 1.98 0 3 0 C4.46463311 2.92926622 4.13182708 5.55256781 4.125 8.8125 C4.12757813 10.03582031 4.13015625 11.25914063 4.1328125 12.51953125 C4.01945473 15.49017156 3.69145246 18.1189481 3 21 C1.68 21 0.36 21 -1 21 C-2.00556398 14.18451079 -2.09688583 7.82506739 -1 1 C-0.67 0.67 -0.34 0.34 0 0 Z " fill="#06C8D0" transform="translate(410,88)"/>
<path d="M0 0 C2 0.66666667 4 1.33333333 6 2 C5.84660156 2.65355469 5.69320313 3.30710937 5.53515625 3.98046875 C4.86620406 7.75492159 4.64592703 11.48905996 4.4375 15.3125 C4.39431641 16.05306641 4.35113281 16.79363281 4.30664062 17.55664062 C4.20129568 19.37091464 4.10021684 21.1854355 4 23 C2.68 23 1.36 23 0 23 C0 15.41 0 7.82 0 0 Z " fill="#09BBDB" transform="translate(451,84)"/>
<path d="M0 0 C2.0625 0.4375 2.0625 0.4375 4 1 C3.80087757 4.58420374 3.24006976 5.77839715 0.5625 8.25 C-5.70751786 11.33000878 -12.21095037 11.60793281 -19 10 C-19 9.67 -19 9.34 -19 9 C-18.16855469 8.93941406 -17.33710938 8.87882812 -16.48046875 8.81640625 C-15.39378906 8.73261719 -14.30710937 8.64882812 -13.1875 8.5625 C-12.10855469 8.48128906 -11.02960938 8.40007812 -9.91796875 8.31640625 C-6.94010095 8.09787539 -6.94010095 8.09787539 -4 7 C-5.22976563 7.03480469 -5.22976563 7.03480469 -6.484375 7.0703125 C-8.10085938 7.09738281 -8.10085938 7.09738281 -9.75 7.125 C-11.35101563 7.15980469 -11.35101563 7.15980469 -12.984375 7.1953125 C-15.92470106 7.00487687 -17.52361878 6.52670104 -20 5 C-17 4 -17 4 -13.3125 4.6875 C-8.39717344 5.42479898 -5.07364413 3.6209481 -1 1 C-0.67 0.67 -0.34 0.34 0 0 Z " fill="#27C2A9" transform="translate(310,99)"/>
<path d="M0 0 C0.99 0 1.98 0 3 0 C3 9.9 3 19.8 3 30 C2.01 29.67 1.02 29.34 0 29 C0 19.43 0 9.86 0 0 Z " fill="#0BF399" transform="translate(180,69)"/>
<path d="M0 0 C0.33 0.66 0.66 1.32 1 2 C1.99 2 2.98 2 4 2 C4 2.99 4 3.98 4 5 C8.29 5 12.58 5 17 5 C17 5.99 17 6.98 17 8 C8.75 8 0.5 8 -8 8 C-8 7.34 -8 6.68 -8 6 C-6.576875 5.9071875 -6.576875 5.9071875 -5.125 5.8125 C-4.09375 5.544375 -3.0625 5.27625 -2 5 C-0.54708727 2.53744315 -0.54708727 2.53744315 0 0 Z " fill="#06B1E5" transform="translate(114,121)"/>
<path d="M0 0 C0.66 0.66 1.32 1.32 2 2 C0.35 2 -1.3 2 -3 2 C-2.67 2.99 -2.34 3.98 -2 5 C-2.99 5.495 -2.99 5.495 -4 6 C-4.38218767 7.65614657 -4.71395102 9.32457024 -5 11 C-5.33 11.66 -5.66 12.32 -6 13 C-5.236875 12.896875 -4.47375 12.79375 -3.6875 12.6875 C-2.3571875 12.8421875 -2.3571875 12.8421875 -1 13 C0.8125 15.5 0.8125 15.5 2 18 C-0.64 18 -3.28 18 -6 18 C-6.13277344 17.15695313 -6.26554687 16.31390625 -6.40234375 15.4453125 C-6.57894531 14.34960938 -6.75554687 13.25390625 -6.9375 12.125 C-7.11152344 11.03445312 -7.28554687 9.94390625 -7.46484375 8.8203125 C-7.85551159 6.06178454 -7.85551159 6.06178454 -9 4 C-7.02116229 -1.02320343 -5.05932547 -1.39131451 0 0 Z " fill="#15D1B2" transform="translate(79,75)"/>
<path d="M0 0 C0.59167969 0.15597656 1.18335938 0.31195313 1.79296875 0.47265625 C7.87320033 1.98683598 7.87320033 1.98683598 14 1 C14 1.66 14 2.32 14 3 C15.32 3.33 16.64 3.66 18 4 C13.82413459 7.45588862 9.86678002 7.49043616 4.671875 7.37109375 C0.83004804 6.83750667 -1.09621539 5.51138129 -4 3 C-3.34 2.67 -2.68 2.34 -2 2 C-1.34 2.33 -0.68 2.66 0 3 C0 2.01 0 1.02 0 0 Z " fill="#22D398" transform="translate(198,102)"/>
<path d="M0 0 C1.11375 0.185625 1.11375 0.185625 2.25 0.375 C2.58 1.695 2.91 3.015 3.25 4.375 C2.59 4.375 1.93 4.375 1.25 4.375 C1.25 3.715 1.25 3.055 1.25 2.375 C-0.07 2.375 -1.39 2.375 -2.75 2.375 C-2.09 4.355 -1.43 6.335 -0.75 8.375 C-1.41 8.375 -2.07 8.375 -2.75 8.375 C-2.87375 9.096875 -2.9975 9.81875 -3.125 10.5625 C-3.7404931 13.33221894 -4.63444374 15.7720354 -5.75 18.375 C-6.08 17.385 -6.41 16.395 -6.75 15.375 C-6.42 14.715 -6.09 14.055 -5.75 13.375 C-6.41 13.375 -7.07 13.375 -7.75 13.375 C-7.75 14.035 -7.75 14.695 -7.75 15.375 C-8.41 15.375 -9.07 15.375 -9.75 15.375 C-5.45833333 0.74431818 -5.45833333 0.74431818 0 0 Z " fill="#16BBC3" transform="translate(410.75,66.625)"/>
<path d="M0 0 C2.29109597 -0.08075665 4.58299267 -0.13907731 6.875 -0.1875 C8.78925781 -0.23970703 8.78925781 -0.23970703 10.7421875 -0.29296875 C11.81726563 -0.19628906 12.89234375 -0.09960938 14 0 C14.66 0.99 15.32 1.98 16 3 C14 5 14 5 10.5234375 5.1953125 C9.14049032 5.18201493 7.75761346 5.15816232 6.375 5.125 C5.66859375 5.11597656 4.9621875 5.10695313 4.234375 5.09765625 C2.48943902 5.07407603 0.74467705 5.03820461 -1 5 C-0.67 3.35 -0.34 1.7 0 0 Z " fill="#32C2A2" transform="translate(259,92)"/>
<path d="M0 0 C1.0725 0.01417969 2.145 0.02835937 3.25 0.04296875 C4.3225 0.04941406 5.395 0.05585937 6.5 0.0625 C9.25 0.23046875 9.25 0.23046875 11.25 1.23046875 C10.92 2.55046875 10.59 3.87046875 10.25 5.23046875 C5.63 5.23046875 1.01 5.23046875 -3.75 5.23046875 C-4.08 4.24046875 -4.41 3.25046875 -4.75 2.23046875 C-2.75 0.23046875 -2.75 0.23046875 0 0 Z " fill="#3CB0B0" transform="translate(354.75,91.76953125)"/>
<path d="M0 0 C0.99 0 1.98 0 3 0 C3.99250545 5.70690634 4.10477512 11.21408489 4 17 C3.34 17 2.68 17 2 17 C2 12.38 2 7.76 2 3 C1.34 3 0.68 3 0 3 C-0.77381354 6.78308841 -0.95348797 9.30523411 0 13 C-0.4375 15.75 -0.4375 15.75 -1 18 C-1.33 18 -1.66 18 -2 18 C-2.10957031 17.31292969 -2.21914063 16.62585938 -2.33203125 15.91796875 C-2.49058594 15.01691406 -2.64914062 14.11585937 -2.8125 13.1875 C-2.96332031 12.29417969 -3.11414063 11.40085937 -3.26953125 10.48046875 C-4.05395393 7.81678744 -4.88627799 6.74309678 -7 5 C-6.01 5 -5.02 5 -4 5 C-4.99 3.68 -5.98 2.36 -7 1 C-5.824375 1.309375 -5.824375 1.309375 -4.625 1.625 C-3.75875 1.74875 -2.8925 1.8725 -2 2 C-1.34 1.34 -0.68 0.68 0 0 Z " fill="#1D9DD4" transform="translate(536,81)"/>
<path d="M0 0 C5.28 0 10.56 0 16 0 C16 0.66 16 1.32 16 2 C18.31 2.33 20.62 2.66 23 3 C23 3.66 23 4.32 23 5 C18.03926578 6.32286246 13.08888488 6.08893197 8 6 C8.33 4.35 8.66 2.7 9 1 C6.03 1 3.06 1 0 1 C0 0.67 0 0.34 0 0 Z " fill="#12BFCE" transform="translate(96,74)"/>
<path d="M0 0 C0.33 0 0.66 0 1 0 C1.1237709 4.6263658 1.21441516 9.25176461 1.2746582 13.87939453 C1.29977448 15.45280751 1.33387472 17.02610412 1.37719727 18.59912109 C1.43798399 20.86324772 1.46623582 23.12583022 1.48828125 25.390625 C1.51408768 26.09181458 1.5398941 26.79300415 1.56648254 27.51544189 C1.56860976 31.23518066 1.2744321 32.71033449 -1.32226562 35.45117188 C-4.70685217 37.40885031 -6.93073818 37.40683886 -10.8125 37.25 C-11.97394531 37.21390625 -13.13539062 37.1778125 -14.33203125 37.140625 C-15.21246094 37.09421875 -16.09289062 37.0478125 -17 37 C-13.79619983 34.86413322 -12.98060033 34.76867825 -9.3125 34.875 C-8.50425781 34.89304688 -7.69601563 34.91109375 -6.86328125 34.9296875 C-6.24839844 34.95289063 -5.63351563 34.97609375 -5 35 C-5 34.34 -5 33.68 -5 33 C-3.68 33 -2.36 33 -1 33 C-0.67 22.11 -0.34 11.22 0 0 Z " fill="#2696CE" transform="translate(132,80)"/>
<path d="M0 0 C0.74886475 0.00523682 1.49772949 0.01047363 2.26928711 0.01586914 C3.07817383 0.0190918 3.88706055 0.02231445 4.72045898 0.02563477 C5.5705957 0.03401367 6.42073242 0.04239258 7.29663086 0.05102539 C8.15063477 0.05553711 9.00463867 0.06004883 9.88452148 0.06469727 C12.00108749 0.07652166 14.11761771 0.0944577 16.23413086 0.11352539 C12.10612211 4.9767639 12.10612211 4.9767639 8.12084961 5.60180664 C7.06510742 5.54379883 6.00936523 5.48579102 4.92163086 5.42602539 C3.31868164 5.35834961 3.31868164 5.35834961 1.68334961 5.28930664 C0.47098633 5.20229492 0.47098633 5.20229492 -0.76586914 5.11352539 C-1.42586914 3.79352539 -2.08586914 2.47352539 -2.76586914 1.11352539 C-1.76586914 0.11352539 -1.76586914 0.11352539 0 0 Z " fill="#0CDECA" transform="translate(95.765869140625,90.886474609375)"/>
<path d="M0 0 C-1.07121094 -0.01160156 -2.14242188 -0.02320312 -3.24609375 -0.03515625 C-4.64322743 -0.04453299 -6.04036299 -0.05363331 -7.4375 -0.0625 C-8.14455078 -0.07087891 -8.85160156 -0.07925781 -9.58007812 -0.08789062 C-11.38693559 -0.09653588 -13.19387603 -0.05220011 -15 0 C-15.33 0.33 -15.66 0.66 -16 1 C-10.555 1.495 -10.555 1.495 -5 2 C-5 2.33 -5 2.66 -5 3 C-6.01320313 3.09087891 -6.01320313 3.09087891 -7.046875 3.18359375 C-7.93890625 3.26738281 -8.8309375 3.35117188 -9.75 3.4375 C-10.63171875 3.51871094 -11.5134375 3.59992188 -12.421875 3.68359375 C-14.69350452 3.96238465 -16.79851823 4.38790577 -19 5 C-18.67 4.01 -18.34 3.02 -18 2 C-23.23517403 4.39322241 -25.29888643 8.16098377 -28 13 C-28.66 12.67 -29.32 12.34 -30 12 C-26.29879547 5.40006449 -22.74182871 -0.10932884 -15.125 -2.375 C-9.66157344 -3.48656087 -4.72030224 -3.14686816 0 0 Z " fill="#2ABEA1" transform="translate(308,69)"/>
<path d="M0 0 C0.99 0 1.98 0 3 0 C1.46745644 5.87475032 -0.67669016 11.39473306 -3 17 C-4.65 16.67 -6.3 16.34 -8 16 C-8 14.02 -8 12.04 -8 10 C-6.35 10 -4.7 10 -3 10 C-2.814375 8.9171875 -2.814375 8.9171875 -2.625 7.8125 C-2.0095069 5.04278106 -1.11555626 2.6029646 0 0 Z " fill="#09D3B9" transform="translate(337,90)"/>
<path d="M0 0 C5.94 0 11.88 0 18 0 C17.34 2.97 16.68 5.94 16 9 C15.67 9 15.34 9 15 9 C15 7.35 15 5.7 15 4 C5.1 4 -4.8 4 -15 4 C-15.33 3.34 -15.66 2.68 -16 2 C-3.13 2.495 -3.13 2.495 10 3 C10 2.34 10 1.68 10 1 C6.7 1 3.4 1 0 1 C0 0.67 0 0.34 0 0 Z " fill="#12D7B0" transform="translate(74,112)"/>
<path d="M0 0 C0.99 0.33 1.98 0.66 3 1 C2.875 3.3125 2.875 3.3125 2 6 C-0.98073831 8.43165494 -3.00705321 9.09274778 -6.84375 8.734375 C-9.58943787 8.23901894 -12.29198046 7.66977707 -15 7 C-15.33 6.01 -15.66 5.02 -16 4 C-15.09636719 4.04640625 -14.19273437 4.0928125 -13.26171875 4.140625 C-11.49248047 4.19476563 -11.49248047 4.19476563 -9.6875 4.25 C-8.51574219 4.29640625 -7.34398437 4.3428125 -6.13671875 4.390625 C-2.90299431 4.32434604 -2.90299431 4.32434604 -1.08203125 1.984375 C-0.72496094 1.32953125 -0.36789062 0.6746875 0 0 Z " fill="#1A99DD" transform="translate(567,100)"/>
<path d="M0 0 C0.99 0.66 1.98 1.32 3 2 C1.68 2 0.36 2 -1 2 C-0.98839844 2.82242188 -0.97679687 3.64484375 -0.96484375 4.4921875 C-0.90898042 11.40327971 -1.13305966 18.14188265 -2 25 C-4.55794138 23.10934767 -5.01974236 21.92045275 -5.80078125 18.7734375 C-6.02044525 14.61274286 -5.38781546 11.60343074 -4.1875 7.625 C-3.83042969 6.40039062 -3.47335937 5.17578125 -3.10546875 3.9140625 C-2 1 -2 1 0 0 Z " fill="#288DC4" transform="translate(580,81)"/>
<path d="M0 0 C1.65 0.33 3.3 0.66 5 1 C4.34 2.98 3.68 4.96 3 7 C2.34 7 1.68 7 1 7 C0.67 8.65 0.34 10.3 0 12 C-0.66 12 -1.32 12 -2 12 C-2 13.32 -2 14.64 -2 16 C-2.99 16.33 -3.98 16.66 -5 17 C-4.74273307 15.10227809 -4.46856661 13.20684323 -4.1875 11.3125 C-4.03667969 10.25675781 -3.88585937 9.20101562 -3.73046875 8.11328125 C-2.97608241 4.89806247 -1.84125013 2.71899677 0 0 Z " fill="#19C0B0" transform="translate(345,67)"/>
<path d="M0 0 C1.4370809 -0.05422947 2.87475462 -0.09289723 4.3125 -0.125 C5.11300781 -0.14820313 5.91351563 -0.17140625 6.73828125 -0.1953125 C9 0 9 0 12 2 C12.38384509 4.93597539 12.603843 7.68027373 12.6875 10.625 C12.73874023 11.82769531 12.73874023 11.82769531 12.79101562 13.0546875 C12.87356878 15.03596318 12.93845916 17.01796037 13 19 C12.67 19 12.34 19 12 19 C11.71125 17.865625 11.4225 16.73125 11.125 15.5625 C10.75375 14.386875 10.3825 13.21125 10 12 C9.34 11.67 8.68 11.34 8 11 C7.938125 9.88625 7.87625 8.7725 7.8125 7.625 C7.43580155 4.03365604 7.43580155 4.03365604 5.3828125 2.87109375 C3.21922384 1.93602092 3.21922384 1.93602092 0 1 C0 0.67 0 0.34 0 0 Z " fill="#129BE4" transform="translate(121,59)"/>
<path d="M0 0 C3.45963582 2.83867555 4.87071284 4.46561308 5.9375 8.875 C6.23221941 12.95453713 5.35692478 16.16868298 4 20 C2.35 20 0.7 20 -1 20 C-0.38722388 17.03824877 0.25372522 15.61941217 2 13 C2.46531409 7.97460788 1.97760844 5.09421161 -1 1 C-0.67 0.67 -0.34 0.34 0 0 Z " fill="#0FE8A6" transform="translate(213,85)"/>
<path d="M0 0 C9.40228594 -0.1170409 18.62895894 0.11504503 28 1 C27.67 1.66 27.34 2.32 27 3 C23.06263877 3.08696177 19.12552372 3.14037835 15.1875 3.1875 C13.50817383 3.22520508 13.50817383 3.22520508 11.79492188 3.26367188 C10.72177734 3.27333984 9.64863281 3.28300781 8.54296875 3.29296875 C7.0583313 3.31653442 7.0583313 3.31653442 5.54370117 3.34057617 C2.6300787 2.95047123 1.77502198 2.27991712 0 0 Z " fill="#07BFD5" transform="translate(92,58)"/>
<path d="M0 0 C0.90105469 0.11085938 1.80210938 0.22171875 2.73046875 0.3359375 C3.76107422 0.47902344 3.76107422 0.47902344 4.8125 0.625 C4.4825 2.275 4.1525 3.925 3.8125 5.625 C0.1825 5.625 -3.4475 5.625 -7.1875 5.625 C-7.5175 4.305 -7.8475 2.985 -8.1875 1.625 C-4.73535147 -0.67643236 -3.95270676 -0.51333854 0 0 Z " fill="#10D8AA" transform="translate(100.1875,74.375)"/>
<path d="M0 0 C2.28436626 2.43984669 2.97591905 3.71102856 3.2578125 7.09375 C3.21398437 8.2178125 3.17015625 9.341875 3.125 10.5 C2.90557798 14.91163811 2.90557798 14.91163811 3.6171875 19.21875 C3.74351562 19.8065625 3.86984375 20.394375 4 21 C3.34 21.99 2.68 22.98 2 24 C1.34 24 0.68 24 0 24 C0 18.72 0 13.44 0 8 C-0.66 7.67 -1.32 7.34 -2 7 C-2 6.34 -2 5.68 -2 5 C-1.34 5 -0.68 5 0 5 C0 3.35 0 1.7 0 0 Z " fill="#07ECA6" transform="translate(227,83)"/>
<path d="M0 0 C2.96855319 0.47496851 4.41328438 1.29017839 6.9375 3.0625 C12.12228356 6.21202861 18.15638855 5.31634588 24 5 C23.67 5.66 23.34 6.32 23 7 C19.43954823 8.18681726 16.56191663 8.09689832 12.8125 8.0625 C11.54019531 8.05347656 10.26789063 8.04445313 8.95703125 8.03515625 C7.49330078 8.01775391 7.49330078 8.01775391 6 8 C6 7.01 6 6.02 6 5 C5.38125 4.9175 4.7625 4.835 4.125 4.75 C2 4 2 4 0.75 1.9375 C0.5025 1.298125 0.255 0.65875 0 0 Z " fill="#0CDBB0" transform="translate(283,100)"/>
<path d="M0 0 C4.62 0 9.24 0 14 0 C14.33 0.99 14.66 1.98 15 3 C14.67 3.66 14.34 4.32 14 5 C9.71 5 5.42 5 1 5 C1.99 4.01 2.98 3.02 4 2 C2.68 1.34 1.36 0.68 0 0 Z " fill="#1AABD4" transform="translate(107,90)"/>
<path d="M0 0 C4.29 0 8.58 0 13 0 C13.33 1.32 13.66 2.64 14 4 C9.38 4 4.76 4 0 4 C0 2.68 0 1.36 0 0 Z " fill="#07D8B9" transform="translate(94,83)"/>
<path d="M0 0 C0 0.33 0 0.66 0 1 C-0.55461914 0.99887207 -1.10923828 0.99774414 -1.68066406 0.99658203 C-4.20499989 1.00872334 -6.726333 1.06639525 -9.25 1.125 C-10.12269531 1.12242188 -10.99539062 1.11984375 -11.89453125 1.1171875 C-14.39645975 1.19358226 -16.585323 1.33378527 -19 2 C-21.46627012 4.78744138 -21.46627012 4.78744138 -23 8 C-24.8515625 9.5390625 -24.8515625 9.5390625 -26.625 10.625 C-29.36137572 12.43557837 -30.9267926 13.78037779 -32 17 C-32.62768555 15.20214844 -32.62768555 15.20214844 -33 13 C-24.51099992 -0.43956419 -14.99098124 -1.74869871 0 0 Z " fill="#2ED5A5" transform="translate(88,57)"/>
<path d="M0 0 C1.48831242 0.00667405 2.97660807 0.01863442 4.46484375 0.03515625 C5.22345703 0.03966797 5.98207031 0.04417969 6.76367188 0.04882812 C8.64326246 0.06064945 10.52281274 0.07858547 12.40234375 0.09765625 C12.40234375 0.75765625 12.40234375 1.41765625 12.40234375 2.09765625 C5.96734375 2.59265625 5.96734375 2.59265625 -0.59765625 3.09765625 C-0.92765625 5.07765625 -1.25765625 7.05765625 -1.59765625 9.09765625 C-2.58765625 9.09765625 -3.57765625 9.09765625 -4.59765625 9.09765625 C-4.6953125 2.9453125 -4.6953125 2.9453125 -4.59765625 1.09765625 C-3.59765625 0.09765625 -3.59765625 0.09765625 0 0 Z " fill="#01CDCA" transform="translate(94.59765625,112.90234375)"/>
<path d="M0 0 C0.66 0 1.32 0 2 0 C2 7.26 2 14.52 2 22 C1.34 22 0.68 22 0 22 C0 21.01 0 20.02 0 19 C-0.66 19 -1.32 19 -2 19 C-2.33 19.66 -2.66 20.32 -3 21 C-2.84402344 20.20335938 -2.68804688 19.40671875 -2.52734375 18.5859375 C-2.33269531 17.52632812 -2.13804687 16.46671875 -1.9375 15.375 C-1.74027344 14.33085938 -1.54304687 13.28671875 -1.33984375 12.2109375 C-0.84931937 8.98956289 -0.84931937 8.98956289 -1.56640625 5.7890625 C-2 3 -2 3 0 0 Z " fill="#04ACEB" transform="translate(536,84)"/>
<path d="M0 0 C-0.33 1.32 -0.66 2.64 -1 4 C-1.66 4 -2.32 4 -3 4 C-3.66 5.98 -4.32 7.96 -5 10 C-4.01 10.33 -3.02 10.66 -2 11 C-2.99 11.495 -2.99 11.495 -4 12 C-4 13.98 -4 15.96 -4 18 C-4.66 18 -5.32 18 -6 18 C-7.41179301 15.17641398 -7.28379289 12.70914537 -7.375 9.5625 C-7.42398438 8.40878906 -7.47296875 7.25507812 -7.5234375 6.06640625 C-7 3 -7 3 -4.6015625 1.08984375 C-2 0 -2 0 0 0 Z " fill="#09AAEF" transform="translate(553,84)"/>
<path d="M0 0 C3.89047538 0.88925152 5.64183049 2.48111104 7.8125 5.6875 C10.05402467 9.58365172 10.69719086 12.46825942 10 17 C9.01 18.32 8.02 19.64 7 21 C7.33 17.04 7.66 13.08 8 9 C7.01 9.495 7.01 9.495 6 10 C5.34227572 13.02934491 5.34227572 13.02934491 5 16 C4.67 16 4.34 16 4 16 C3.67 13.03 3.34 10.06 3 7 C3.99 7 4.98 7 6 7 C5.195625 6.21625 4.39125 5.4325 3.5625 4.625 C1 2 1 2 0 0 Z " fill="#27BF9A" transform="translate(245,82)"/>
<path d="M0 0 C1.32 0 2.64 0 4 0 C4 0.66 4 1.32 4 2 C4.99 2.33 5.98 2.66 7 3 C7 4.32 7 5.64 7 7 C9.97 7 12.94 7 16 7 C16 7.33 16 7.66 16 8 C9.01370081 8.50604984 4.79799884 8.0333905 -1 4 C-0.67 2.68 -0.34 1.36 0 0 Z " fill="#1FA4D6" transform="translate(513,114)"/>
<path d="M0 0 C0.66 0 1.32 0 2 0 C2 2.64 2 5.28 2 8 C3.32 7.67 4.64 7.34 6 7 C6 7.66 6 8.32 6 9 C6.66 9 7.32 9 8 9 C8 9.66 8 10.32 8 11 C1.6217765 11.36103152 1.6217765 11.36103152 -0.9375 9.875 C-2.48138276 7.15050101 -2.3267107 5.07108055 -2 2 C-1.34 1.34 -0.68 0.68 0 0 Z " fill="#0FBECE" transform="translate(423,97)"/>
<path d="M0 0 C0.76183594 -0.01417969 1.52367188 -0.02835938 2.30859375 -0.04296875 C4.79597315 0.21137334 6.41058106 0.94732804 8.5625 2.1875 C6.86160781 3.88839219 4.57603847 3.51497264 2.25 3.6875 C-1.76021542 3.97831909 -1.76021542 3.97831909 -5.66796875 4.84375 C-6.25191406 4.9571875 -6.83585937 5.070625 -7.4375 5.1875 C-8.0975 4.5275 -8.7575 3.8675 -9.4375 3.1875 C-8.7775 3.1875 -8.1175 3.1875 -7.4375 3.1875 C-7.4375 2.5275 -7.4375 1.8675 -7.4375 1.1875 C-4.66697819 0.26399273 -2.87061242 0.02420415 0 0 Z " fill="#08D1B9" transform="translate(87.4375,57.8125)"/>
<path d="M0 0 C0.66 0.99 1.32 1.98 2 3 C1.67 3.66 1.34 4.32 1 5 C-2.30182914 5.31835818 -5.58284187 5.38006931 -8.8984375 5.4609375 C-12.100137 5.69727308 -12.100137 5.69727308 -13.9140625 8.0390625 C-14.27242188 8.68617187 -14.63078125 9.33328125 -15 10 C-16.125 5.25 -16.125 5.25 -15 3 C-10.05 3 -5.1 3 0 3 C0 2.01 0 1.02 0 0 Z " fill="#03B5E8" transform="translate(126,110)"/>
<path d="M0 0 C6.74233419 -0.12910853 13.30386804 0.202163 20 1 C20 1.66 20 2.32 20 3 C13.73 3 7.46 3 1 3 C0.67 2.01 0.34 1.02 0 0 Z " fill="#05E7A8" transform="translate(64,112)"/>
<path d="M0 0 C0.825 0.66 1.65 1.32 2.5 2 C6.34492481 4.61234126 9.45655064 4.31334134 14 4 C13.67 4.66 13.34 5.32 13 6 C10.69 6 8.38 6 6 6 C7.25541557 8.51083114 8.50063488 8.87125446 11 10 C3.73846154 9.63076923 3.73846154 9.63076923 0 6.4375 C-0.66 5.633125 -1.32 4.82875 -2 4 C0.475 4.99 0.475 4.99 3 6 C2.2575 5.071875 2.2575 5.071875 1.5 4.125 C0 2 0 2 0 0 Z " fill="#269ED0" transform="translate(516,99)"/>
<path d="M0 0 C0.99 0.33 1.98 0.66 3 1 C3.33 3.31 3.66 5.62 4 8 C-0.29 8 -4.58 8 -9 8 C-8.34 7.01 -7.68 6.02 -7 5 C-3.375 4.8125 -3.375 4.8125 0 5 C0 3.35 0 1.7 0 0 Z " fill="#0DA1EB" transform="translate(567,88)"/>
<path d="M0 0 C0.66 0.33 1.32 0.66 2 1 C2 5.95 2 10.9 2 16 C1.01 15.67 0.02 15.34 -1 15 C-1.02715383 13.25008666 -1.04646551 11.50005055 -1.0625 9.75 C-1.07410156 8.77546875 -1.08570313 7.8009375 -1.09765625 6.796875 C-1.01195577 4.34241322 -0.70706066 2.33831086 0 0 Z " fill="#0C9DF0" transform="translate(579,92)"/>
<path d="M0 0 C2.64 0 5.28 0 8 0 C7.67 1.65 7.34 3.3 7 5 C4.03 5 1.06 5 -2 5 C-1.34 3.35 -0.68 1.7 0 0 Z " fill="#0DAFE5" transform="translate(112,82)"/>
<path d="M0 0 C0.33 0 0.66 0 1 0 C1 3.96 1 7.92 1 12 C1.99 12.33 2.98 12.66 4 13 C5.6875 14.5625 5.6875 14.5625 7 16 C6.67 16.33 6.34 16.66 6 17 C3.66055264 16.71269945 1.3260857 16.38063221 -1 16 C-1.33 15.01 -1.66 14.02 -2 13 C-1.67 12.67 -1.34 12.34 -1 12 C-0.76572222 9.98405418 -0.58663876 7.961526 -0.4375 5.9375 C-0.35371094 4.83277344 -0.26992188 3.72804688 -0.18359375 2.58984375 C-0.12300781 1.73519531 -0.06242187 0.88054687 0 0 Z " fill="#0DF19C" transform="translate(59,98)"/>
<path d="M0 0 C-1.875 4.75 -1.875 4.75 -3 7 C-3.99 7 -4.98 7 -6 7 C-6.33 8.32 -6.66 9.64 -7 11 C-7.66 11 -8.32 11 -9 11 C-8.72217314 7.01781501 -8.20726652 5.25090158 -5.625 2.125 C-3 0 -3 0 0 0 Z " fill="#0DDCAE" transform="translate(290,71)"/>
<path d="M0 0 C2.6015625 -0.29296875 2.6015625 -0.29296875 5.625 -0.1875 C7.12933594 -0.14689453 7.12933594 -0.14689453 8.6640625 -0.10546875 C9.43492187 -0.07066406 10.20578125 -0.03585938 11 0 C11.33 1.32 11.66 2.64 12 4 C11.01 4.495 11.01 4.495 10 5 C10 4.34 10 3.68 10 3 C6.04 3 2.08 3 -2 3 C-1.34 2.01 -0.68 1.02 0 0 Z " fill="#0BD8B3" transform="translate(293,68)"/>
<path d="M0 0 C0.66 0 1.32 0 2 0 C2 6.27 2 12.54 2 19 C1.34 19 0.68 19 0 19 C0 13.72 0 8.44 0 3 C-0.66 2.67 -1.32 2.34 -2 2 C-1.34 2 -0.68 2 0 2 C0 1.34 0 0.68 0 0 Z " fill="#05BADE" transform="translate(471,87)"/>
<path d="M0 0 C-0.66 3.96 -1.32 7.92 -2 12 C-2.99 12 -3.98 12 -5 12 C-5 8.37 -5 4.74 -5 1 C-2 0 -2 0 0 0 Z " fill="#04BDD9" transform="translate(457,86)"/>
<path d="M0 0 C1.98 0 3.96 0 6 0 C5.67 1.32 5.34 2.64 5 4 C7.64 4 10.28 4 13 4 C13.66 2.68 14.32 1.36 15 0 C15.042721 1.66611905 15.04063832 3.33382885 15 5 C14 6 14 6 10.83984375 6.09765625 C8.90818359 6.08025391 8.90818359 6.08025391 6.9375 6.0625 C5.64714844 6.05347656 4.35679688 6.04445313 3.02734375 6.03515625 C2.02832031 6.02355469 1.02929688 6.01195313 0 6 C0.66 5.67 1.32 5.34 2 5 C1.34 3.35 0.68 1.7 0 0 Z " fill="#1BB3CE" transform="translate(106,82)"/>
<path d="M0 0 C1.32 0.33 2.64 0.66 4 1 C2.68 3.97 1.36 6.94 0 10 C-0.66 10 -1.32 10 -2 10 C-2.33 7.36 -2.66 4.72 -3 2 C-2.01 1.34 -1.02 0.68 0 0 Z " fill="#0FB0DB" transform="translate(485,95)"/>
<path d="M0 0 C3.96 0 7.92 0 12 0 C11.67 0.99 11.34 1.98 11 3 C7.04 3 3.08 3 -1 3 C-0.67 2.01 -0.34 1.02 0 0 Z " fill="#14B5A7" transform="translate(95,80)"/>
<path d="M0 0 C1.6254308 0.14095064 3.25034051 0.28792087 4.875 0.4375 C5.77992188 0.51871094 6.68484375 0.59992188 7.6171875 0.68359375 C10 1 10 1 12 2 C12 2.66 12 3.32 12 4 C8.04 4 4.08 4 0 4 C0 2.68 0 1.36 0 0 Z " fill="#0FC9BF" transform="translate(352,92)"/>
<path d="M0 0 C0.33 0 0.66 0 1 0 C1.33820166 1.5823006 1.67035939 3.16589375 2 4.75 C2.185625 5.63171875 2.37125 6.5134375 2.5625 7.421875 C3 10 3 10 3 14 C2.01 13.67 1.02 13.34 0 13 C-0.07347656 12.04287109 -0.07347656 12.04287109 -0.1484375 11.06640625 C-0.22320312 10.24011719 -0.29796875 9.41382812 -0.375 8.5625 C-0.44460938 7.73878906 -0.51421875 6.91507812 -0.5859375 6.06640625 C-0.72257812 5.38449219 -0.85921875 4.70257813 -1 4 C-1.66 3.67 -2.32 3.34 -3 3 C-2.34 3 -1.68 3 -1 3 C-0.67 2.01 -0.34 1.02 0 0 Z " fill="#0CDFAE" transform="translate(280,84)"/>
<path d="M0 0 C0.99 0 1.98 0 3 0 C3.99250545 5.70690634 4.10477512 11.21408489 4 17 C3.34 17 2.68 17 2 17 C2 12.38 2 7.76 2 3 C1.01 3 0.02 3 -1 3 C-0.67 2.01 -0.34 1.02 0 0 Z " fill="#2597C8" transform="translate(536,81)"/>
<path d="M0 0 C0 0.66 0 1.32 0 2 C2.97 2.33 5.94 2.66 9 3 C9 3.33 9 3.66 9 4 C8.09507812 4.09087891 8.09507812 4.09087891 7.171875 4.18359375 C5.97304688 4.30927734 5.97304688 4.30927734 4.75 4.4375 C3.96109375 4.51871094 3.1721875 4.59992188 2.359375 4.68359375 C0.17635361 4.97634993 -1.8773182 5.42064419 -4 6 C-4.33 4.68 -4.66 3.36 -5 2 C-2 0 -2 0 0 0 Z " fill="#20A5CA" transform="translate(488,82)"/>
<path d="M0 0 C2.4375 0.75 2.4375 0.75 4.4375 2.75 C2.7875 2.75 1.1375 2.75 -0.5625 2.75 C-0.2325 3.74 0.0975 4.73 0.4375 5.75 C-0.5525 6.245 -0.5525 6.245 -1.5625 6.75 C-2.21805119 9.27733235 -2.21805119 9.27733235 -2.5625 11.75 C-2.8925 11.75 -3.2225 11.75 -3.5625 11.75 C-3.5625 8.78 -3.5625 5.81 -3.5625 2.75 C-4.2225 2.42 -4.8825 2.09 -5.5625 1.75 C-2.5625 -0.25 -2.5625 -0.25 0 0 Z " fill="#1FBAAD" transform="translate(76.5625,74.25)"/>
<path d="M0 0 C1.32 0.33 2.64 0.66 4 1 C4.66 3.97 5.32 6.94 6 10 C3.525 9.01 3.525 9.01 1 8 C0.67 5.36 0.34 2.72 0 0 Z " fill="#12C2C9" transform="translate(388,97)"/>
<path d="M0 0 C1.32 0.33 2.64 0.66 4 1 C3.75 3.375 3.75 3.375 3 6 C0.9375 7.3125 0.9375 7.3125 -1 8 C-1.99 6.35 -2.98 4.7 -4 3 C-3.01 2.67 -2.02 2.34 -1 2 C-0.67 1.34 -0.34 0.68 0 0 Z " fill="#10AEE1" transform="translate(82,86)"/>
<path d="M0 0 C2.62187494 1.04874998 3.79371361 1.64931313 5.25 4.125 C5.4975 4.74375 5.745 5.3625 6 6 C4.68 5.67 3.36 5.34 2 5 C2.66 6.32 3.32 7.64 4 9 C1.00675737 7.9024777 0.15389099 7.32317108 -1.25 4.375 C-1.4975 3.59125 -1.745 2.8075 -2 2 C-1.34 1.34 -0.68 0.68 0 0 Z " fill="#2CD292" transform="translate(163,99)"/>
<path d="M0 0 C0.99 0 1.98 0 3 0 C3.07654536 4.51617599 3.10228696 8.59085217 2 13 C0.68 13 -0.64 13 -2 13 C-1.67 12.01 -1.34 11.02 -1 10 C-0.34 10.33 0.32 10.66 1 11 C1 8.69 1 6.38 1 4 C0.34 4 -0.32 4 -1 4 C-0.67 2.68 -0.34 1.36 0 0 Z " fill="#27B0B9" transform="translate(411,96)"/>
<path d="M0 0 C0.33 0.99 0.66 1.98 1 3 C-1.97 3 -4.94 3 -8 3 C-8.33 2.01 -8.66 1.02 -9 0 C-5.93109813 -1.53445094 -3.29905734 -0.54984289 0 0 Z " fill="#0BA7E5" transform="translate(531,83)"/>
<path d="M0 0 C2.31386295 0.28064918 4.62609008 0.57481689 6.9375 0.875 C8.86916016 1.11863281 8.86916016 1.11863281 10.83984375 1.3671875 C12.40412109 1.68042969 12.40412109 1.68042969 14 2 C14.33 2.66 14.66 3.32 15 4 C11.52487282 5.15837573 9.86329714 4.77265943 6.3125 4.0625 C5.31863281 3.86785156 4.32476563 3.67320313 3.30078125 3.47265625 C2.54152344 3.31667969 1.78226563 3.16070312 1 3 C0.67 2.01 0.34 1.02 0 0 Z " fill="#08A7EE" transform="translate(551,104)"/>
<path d="M0 0 C0.33 0 0.66 0 1 0 C1.33 6.93 1.66 13.86 2 21 C0.68 21.33 -0.64 21.66 -2 22 C-2.33 21.34 -2.66 20.68 -3 20 C-2.01 20 -1.02 20 0 20 C0 13.4 0 6.8 0 0 Z " fill="#2698BC" transform="translate(503,87)"/>
<path d="M0 0 C0.99 0.99 1.98 1.98 3 3 C-1.29 2.67 -5.58 2.34 -10 2 C-10 1.34 -10 0.68 -10 0 C-6.41167292 -1.24211322 -3.6556535 -0.93335834 0 0 Z " fill="#08B7D7" transform="translate(469,83)"/>
<path d="M0 0 C1.98 0.495 1.98 0.495 4 1 C4.33 2.65 4.66 4.3 5 6 C4.34 5.67 3.68 5.34 3 5 C3 4.01 3 3.02 3 2 C2.34 2 1.68 2 1 2 C1.22816406 2.68707031 1.45632813 3.37414062 1.69140625 4.08203125 C1.97886719 4.98308594 2.26632812 5.88414063 2.5625 6.8125 C2.85253906 7.70582031 3.14257812 8.59914063 3.44140625 9.51953125 C4 12 4 12 3 15 C2.29911844 13.25531628 1.61475991 11.50398839 0.9375 9.75 C0.55464844 8.77546875 0.17179687 7.8009375 -0.22265625 6.796875 C-1.01113787 3.95992605 -1.02437812 2.70590448 0 0 Z " fill="#2EB5A2" transform="translate(316,67)"/>
<path d="M0 0 C0.66 0 1.32 0 2 0 C2.17835515 4.54805635 1.99785435 7.8794254 0 12 C-0.66 11.67 -1.32 11.34 -2 11 C-1.85957123 9.35369672 -1.71250671 7.70795821 -1.5625 6.0625 C-1.48128906 5.14597656 -1.40007812 4.22945313 -1.31640625 3.28515625 C-1 1 -1 1 0 0 Z " fill="#0DE1A8" transform="translate(251,91)"/>
<path d="M0 0 C1.35304209 4.05912626 0.15216503 5.77149591 -1.4375 9.6875 C-1.91058594 10.86699219 -2.38367188 12.04648438 -2.87109375 13.26171875 C-3.24363281 14.16535156 -3.61617188 15.06898437 -4 16 C-4.33 16 -4.66 16 -5 16 C-5.33 14.02 -5.66 12.04 -6 10 C-5.01 9.67 -4.02 9.34 -3 9 C-3 7.68 -3 6.36 -3 5 C-2.34 5 -1.68 5 -1 5 C-0.67 3.35 -0.34 1.7 0 0 Z " fill="#29B9AF" transform="translate(346,74)"/>
<path d="M0 0 C0.33 0 0.66 0 1 0 C0.67 2.31 0.34 4.62 0 7 C1.32 6.67 2.64 6.34 4 6 C2.515 8.475 2.515 8.475 1 11 C0.67 10.34 0.34 9.68 0 9 C-1.32 8.67 -2.64 8.34 -4 8 C-2.68 5.36 -1.36 2.72 0 0 Z " fill="#21A0D4" transform="translate(534,108)"/>
<path d="M0 0 C0.66 0.33 1.32 0.66 2 1 C1.34 2.65 0.68 4.3 0 6 C-0.33 6 -0.66 6 -1 6 C-1.33 8.31 -1.66 10.62 -2 13 C-2.33 13 -2.66 13 -3 13 C-3.33 11.02 -3.66 9.04 -4 7 C-4.66 7.66 -5.32 8.32 -6 9 C-5.25 4.25 -5.25 4.25 -3 2 C-3 2.66 -3 3.32 -3 4 C-2.34 4 -1.68 4 -1 4 C-0.67 2.68 -0.34 1.36 0 0 Z " fill="#19CCA7" transform="translate(284,78)"/>
<path d="M0 0 C0.33 0.66 0.66 1.32 1 2 C3.64 2 6.28 2 9 2 C8.67 2.66 8.34 3.32 8 4 C6.37581255 4.08090971 4.75048255 4.13914995 3.125 4.1875 C2.22007812 4.22230469 1.31515625 4.25710937 0.3828125 4.29296875 C-0.79667969 4.14794922 -0.79667969 4.14794922 -2 4 C-2.66 3.01 -3.32 2.02 -4 1 C-2.68 0.67 -1.36 0.34 0 0 Z " fill="#10E4A9" transform="translate(237,104)"/>
<path d="M0 0 C0.33 1.32 0.66 2.64 1 4 C2.32 3.01 3.64 2.02 5 1 C4.30058404 4.14737182 3.23921302 7.02588876 2 10 C0.68 8.68 -0.64 7.36 -2 6 C-1.34 4.02 -0.68 2.04 0 0 Z " fill="#22B1B8" transform="translate(396,91)"/>
<path d="M0 0 C0.33 0.66 0.66 1.32 1 2 C-1.57404971 5.86107457 -3.61020259 5.94319692 -8 7 C-8 6.34 -8 5.68 -8 5 C-6.68 4.34 -5.36 3.68 -4 3 C-5.32 2.34 -6.64 1.68 -8 1 C-5.07175348 0.02391783 -3.04386724 -0.08226668 0 0 Z " fill="#298EC9" transform="translate(592,81)"/>
<path d="M0 0 C1.65 0 3.3 0 5 0 C5 2.64 5 5.28 5 8 C4.34 8 3.68 8 3 8 C3 7.01 3 6.02 3 5 C2.34 5 1.68 5 1 5 C0.67 3.35 0.34 1.7 0 0 Z " fill="#08BDD7" transform="translate(76,77)"/>
<path d="M0 0 C0.66 0 1.32 0 2 0 C3.4783226 2.95664519 3.06032783 5.74229737 3 9 C2.01 9.33 1.02 9.66 0 10 C0 6.7 0 3.4 0 0 Z " fill="#1999D8" transform="translate(127,102)"/>
<path d="M0 0 C0.99 0.33 1.98 0.66 3 1 C2.67 1.66 2.34 2.32 2 3 C1.84876169 4.5195764 1.75118307 6.04472502 1.68359375 7.5703125 C1.64169922 8.46621094 1.59980469 9.36210938 1.55664062 10.28515625 C1.51732422 11.22230469 1.47800781 12.15945312 1.4375 13.125 C1.39431641 14.06988281 1.35113281 15.01476562 1.30664062 15.98828125 C1.20040928 18.32537092 1.09836824 20.6625683 1 23 C0.67 23 0.34 23 0 23 C0 15.41 0 7.82 0 0 Z " fill="#14AED8" transform="translate(451,84)"/>
<path d="M0 0 C1.53445094 3.06890187 0.54984289 5.70094266 0 9 C-0.99 9.33 -1.98 9.66 -3 10 C-3 10.99 -3 11.98 -3 13 C-3.66 13 -4.32 13 -5 13 C-4.54803755 11.39402675 -4.08817673 9.79027492 -3.625 8.1875 C-3.36976562 7.29417969 -3.11453125 6.40085937 -2.8515625 5.48046875 C-2 3 -2 3 0 0 Z " fill="#22C094" transform="translate(70,77)"/>
<path d="M0 0 C0.33 0.66 0.66 1.32 1 2 C4.3 2 7.6 2 11 2 C11.33 2.99 11.66 3.98 12 5 C10.3745692 4.85904936 8.74965949 4.71207913 7.125 4.5625 C6.22007812 4.48128906 5.31515625 4.40007812 4.3828125 4.31640625 C2 4 2 4 0 3 C0 2.01 0 1.02 0 0 Z " fill="#08B4E0" transform="translate(488,81)"/>
<path d="M0 0 C5.94 0 11.88 0 18 0 C18 0.33 18 0.66 18 1 C16.02 1 14.04 1 12 1 C12 1.66 12 2.32 12 3 C11.505 2.855625 11.01 2.71125 10.5 2.5625 C7.02247078 1.78005593 3.54044877 1.41305236 0 1 C0 0.67 0 0.34 0 0 Z " fill="#0EC0CF" transform="translate(94,126)"/>
<path d="M0 0 C-0.33 0.33 -0.66 0.66 -1 1 C-0.01 1.66 0.98 2.32 2 3 C-0.40545638 4.20272819 -1.94996953 4.10071472 -4.625 4.0625 C-5.85089844 4.04896484 -5.85089844 4.04896484 -7.1015625 4.03515625 C-8.04128906 4.01775391 -8.04128906 4.01775391 -9 4 C-9 3.67 -9 3.34 -9 3 C-7.35 3 -5.7 3 -4 3 C-4 2.34 -4 1.68 -4 1 C-4.66 0.67 -5.32 0.34 -6 0 C-3 -1 -3 -1 0 0 Z " fill="#26A9BE" transform="translate(435,105)"/>
<path d="M0 0 C2.97 0 5.94 0 9 0 C5.25 3 5.25 3 3 3 C3 4.65 3 6.3 3 8 C2.67 8 2.34 8 2 8 C2 6.35 2 4.7 2 3 C1.34 3 0.68 3 0 3 C0 2.01 0 1.02 0 0 Z " fill="#0A9AE7" transform="translate(581,83)"/>
<path d="M0 0 C1.62490954 -0.02698189 3.24994633 -0.04638757 4.875 -0.0625 C5.77992188 -0.07410156 6.68484375 -0.08570312 7.6171875 -0.09765625 C10 0 10 0 12 1 C12 1.66 12 2.32 12 3 C8.04 2.67 4.08 2.34 0 2 C0 1.34 0 0.68 0 0 Z " fill="#07A3F4" transform="translate(554,83)"/>
<path d="M0 0 C0.33 0.66 0.66 1.32 1 2 C2.65 2 4.3 2 6 2 C5.01 2.66 4.02 3.32 3 4 C3.33 4.66 3.66 5.32 4 6 C2.35 5.67 0.7 5.34 -1 5 C-1.33 5.66 -1.66 6.32 -2 7 C-2 5.02 -2 3.04 -2 1 C-1.34 0.67 -0.68 0.34 0 0 Z " fill="#1BCF97" transform="translate(231,102)"/>
<path d="M0 0 C2.3125 -0.25 2.3125 -0.25 5 0 C6.8125 2 6.8125 2 8 4 C5.36 4 2.72 4 0 4 C0 2.68 0 1.36 0 0 Z " fill="#04CACA" transform="translate(73,89)"/>
<path d="M0 0 C1.65 0 3.3 0 5 0 C5 0.66 5 1.32 5 2 C6.65 2.33 8.3 2.66 10 3 C10 3.33 10 3.66 10 4 C7.36 4 4.72 4 2 4 C1.34 2.68 0.68 1.36 0 0 Z " fill="#0CF49B" transform="translate(165,104)"/>
<path d="M0 0 C0.268125 0.5775 0.53625 1.155 0.8125 1.75 C1.95053246 4.05747896 1.95053246 4.05747896 3.625 6.125 C5 8 5 8 5 10 C2.5625 9.375 2.5625 9.375 0 8 C-1.47368421 2.94736842 -1.47368421 2.94736842 0 0 Z " fill="#07ADE5" transform="translate(514,95)"/>
<path d="M0 0 C2.64 0 5.28 0 8 0 C7.01 1.485 7.01 1.485 6 3 C2.375 3.1875 2.375 3.1875 -1 3 C-0.67 2.01 -0.34 1.02 0 0 Z " fill="#05CCC6" transform="translate(104,91)"/>
<path d="M0 0 C5.75 -0.125 5.75 -0.125 8 1 C8 1.66 8 2.32 8 3 C5.36 3 2.72 3 0 3 C0 2.01 0 1.02 0 0 Z " fill="#09E8AA" transform="translate(94,91)"/>
<path d="M0 0 C-3.58752742 1.86551426 -7.27812193 3.42535928 -11 5 C-11.33 4.01 -11.66 3.02 -12 2 C-8.09971775 -0.60018816 -4.52565431 -0.15085514 0 0 Z " fill="#0CE5A5" transform="translate(242,83)"/>
<path d="M0 0 C1.32 0 2.64 0 4 0 C4 0.66 4 1.32 4 2 C4.99 2.33 5.98 2.66 7 3 C4.6921509 4.15392455 2.52769669 4.53437166 0 5 C-0.5625 3.0625 -0.5625 3.0625 -1 1 C-0.67 0.67 -0.34 0.34 0 0 Z " fill="#269FC9" transform="translate(513,114)"/>
<path d="M0 0 C0.33 1.32 0.66 2.64 1 4 C-0.75 5.5625 -0.75 5.5625 -3 7 C-4.32 6.67 -5.64 6.34 -7 6 C-4.69 4.02 -2.38 2.04 0 0 Z " fill="#0ABDD4" transform="translate(440,100)"/>
<path d="M0 0 C0.66 0 1.32 0 2 0 C2 2.31 2 4.62 2 7 C0.68 6.34 -0.64 5.68 -2 5 C-1.34 3.35 -0.68 1.7 0 0 Z " fill="#10C3CE" transform="translate(410,100)"/>
<path d="M0 0 C0.99 0 1.98 0 3 0 C3 0.99 3 1.98 3 3 C-0.3 3.33 -3.6 3.66 -7 4 C-6.67 3.34 -6.34 2.68 -6 2 C-4.02 2 -2.04 2 0 2 C0 1.34 0 0.68 0 0 Z " fill="#10DEB4" transform="translate(270,92)"/>
<path d="M0 0 C0.66 0 1.32 0 2 0 C3.4606285 2.64738916 4 3.89448334 4 7 C2.68 6.67 1.36 6.34 0 6 C0 4.02 0 2.04 0 0 Z " fill="#0DC7C4" transform="translate(385,89)"/>
<path d="M0 0 C1.65 0.33 3.3 0.66 5 1 C4.67 1.99 4.34 2.98 4 4 C2.35 3.67 0.7 3.34 -1 3 C-0.67 2.01 -0.34 1.02 0 0 Z " fill="#0EE9A4" transform="translate(94,83)"/>
<path d="M0 0 C0.99 0 1.98 0 3 0 C3 1.98 3 3.96 3 6 C2.34 6 1.68 6 1 6 C1 5.34 1 4.68 1 4 C0.34 4 -0.32 4 -1 4 C-0.67 2.68 -0.34 1.36 0 0 Z " fill="#06B2E6" transform="translate(500,100)"/>
<path d="M0 0 C1.0326802 2.78823655 1.04509293 3.8677274 0.0625 6.75 C-0.288125 7.4925 -0.63875 8.235 -1 9 C-1.66 9 -2.32 9 -3 9 C-3.26218749 5.85375007 -3.24754367 4.38162983 -1.5 1.6875 C-1.005 1.130625 -0.51 0.57375 0 0 Z " fill="#08AEE9" transform="translate(516,85)"/>
<path d="M0 0 C2.31 0 4.62 0 7 0 C7 0.66 7 1.32 7 2 C5.02 2.33 3.04 2.66 1 3 C0.67 2.01 0.34 1.02 0 0 Z " fill="#05AEE9" transform="translate(522,105)"/>
<path d="M0 0 C0.99 0 1.98 0 3 0 C3 1.65 3 3.3 3 5 C1.02 5.33 -0.96 5.66 -3 6 C-1.68 5.34 -0.36 4.68 1 4 C0.67 2.68 0.34 1.36 0 0 Z " fill="#2A9DC3" transform="translate(496,99)"/>
<path d="M0 0 C0.99 0.33 1.98 0.66 3 1 C3 2.98 3 4.96 3 7 C2.01 7 1.02 7 0 7 C0 4.69 0 2.38 0 0 Z " fill="#05A4F4" transform="translate(567,88)"/>
<path d="M0 0 C1.32 0 2.64 0 4 0 C4 0.66 4 1.32 4 2 C4.66 2.33 5.32 2.66 6 3 C4.68 3.99 3.36 4.98 2 6 C1.34 4.02 0.68 2.04 0 0 Z " fill="#09C6D0" transform="translate(408,69)"/>
<path d="M0 0 C0.99 0.33 1.98 0.66 3 1 C3 2.65 3 4.3 3 6 C1.68 5.67 0.36 5.34 -1 5 C-0.67 3.35 -0.34 1.7 0 0 Z " fill="#15E998" transform="translate(180,98)"/>
<path d="M0 0 C0.99 0.33 1.98 0.66 3 1 C2.67 1.99 2.34 2.98 2 4 C-0.64 3.34 -3.28 2.68 -6 2 C-2 1 -2 1 0 2 C0 1.34 0 0.68 0 0 Z " fill="#09DFB2" transform="translate(71,89)"/>
<path d="M0 0 C0.66 0 1.32 0 2 0 C2 1.98 2 3.96 2 6 C1.34 6 0.68 6 0 6 C-0.33 6.66 -0.66 7.32 -1 8 C-1.04241723 5.66705225 -1.04092937 3.33297433 -1 1 C-0.67 0.67 -0.34 0.34 0 0 Z " fill="#13C6B9" transform="translate(346,68)"/>
<path d="M0 0 C1.65 0 3.3 0 5 0 C5.33 1.32 5.66 2.64 6 4 C5.34 4 4.68 4 4 4 C4 3.34 4 2.68 4 2 C2.35 2.33 0.7 2.66 -1 3 C-0.67 2.01 -0.34 1.02 0 0 Z " fill="#339EA7" transform="translate(408,67)"/>
<path d="M0 0 C2 1 2 1 2 1 Z " fill="#40BFBF" transform="translate(434,100)"/>
<path d="" fill="#000000" transform="translate(0,0)"/>
<path d="" fill="#000000" transform="translate(0,0)"/>
<path d="" fill="#000000" transform="translate(0,0)"/>
<path d="" fill="#000000" transform="translate(0,0)"/>
<path d="" fill="#000000" transform="translate(0,0)"/>
<path d="" fill="#000000" transform="translate(0,0)"/>
<path d="" fill="#000000" transform="translate(0,0)"/>
<path d="" fill="#000000" transform="translate(0,0)"/>
<path d="" fill="#000000" transform="translate(0,0)"/>
<path d="" fill="#000000" transform="translate(0,0)"/>
<path d="" fill="#000000" transform="translate(0,0)"/>
<path d="" fill="#000000" transform="translate(0,0)"/>
<path d="" fill="#000000" transform="translate(0,0)"/>
<path d="" fill="#000000" transform="translate(0,0)"/>
<path d="" fill="#000000" transform="translate(0,0)"/>
<path d="" fill="#000000" transform="translate(0,0)"/>
<path d="" fill="#000000" transform="translate(0,0)"/>
<path d="" fill="#000000" transform="translate(0,0)"/>
<path d="" fill="#000000" transform="translate(0,0)"/>
<path d="" fill="#000000" transform="translate(0,0)"/>
<path d="" fill="#000000" transform="translate(0,0)"/>
<path d="" fill="#000000" transform="translate(0,0)"/>
<path d="" fill="#000000" transform="translate(0,0)"/>
<path d="" fill="#000000" transform="translate(0,0)"/>
<path d="" fill="#000000" transform="translate(0,0)"/>
<path d="" fill="#000000" transform="translate(0,0)"/>
<path d="" fill="#000000" transform="translate(0,0)"/>
<path d="" fill="#000000" transform="translate(0,0)"/>
<path d="" fill="#000000" transform="translate(0,0)"/>
<path d="" fill="#000000" transform="translate(0,0)"/>
<path d="" fill="#000000" transform="translate(0,0)"/>
<path d="" fill="#000000" transform="translate(0,0)"/>
<path d="" fill="#000000" transform="translate(0,0)"/>
<path d="" fill="#000000" transform="translate(0,0)"/>
<path d="" fill="#000000" transform="translate(0,0)"/>
<path d="" fill="#000000" transform="translate(0,0)"/>
<path d="" fill="#000000" transform="translate(0,0)"/>
<path d="" fill="#000000" transform="translate(0,0)"/>
<path d="" fill="#000000" transform="translate(0,0)"/>
<path d="" fill="#000000" transform="translate(0,0)"/>
<path d="" fill="#000000" transform="translate(0,0)"/>
<path d="" fill="#000000" transform="translate(0,0)"/>
<path d="" fill="#000000" transform="translate(0,0)"/>
<path d="" fill="#000000" transform="translate(0,0)"/>
<path d="" fill="#000000" transform="translate(0,0)"/>
<path d="" fill="#000000" transform="translate(0,0)"/>
<path d="" fill="#000000" transform="translate(0,0)"/>
<path d="" fill="#000000" transform="translate(0,0)"/>
<path d="" fill="#000000" transform="translate(0,0)"/>
<path d="" fill="#000000" transform="translate(0,0)"/>
<path d="" fill="#000000" transform="translate(0,0)"/>
<path d="" fill="#000000" transform="translate(0,0)"/>
<path d="" fill="#000000" transform="translate(0,0)"/>
<path d="" fill="#000000" transform="translate(0,0)"/>
<path d="" fill="#000000" transform="translate(0,0)"/>
<path d="" fill="#000000" transform="translate(0,0)"/>
<path d="" fill="#000000" transform="translate(0,0)"/>
<path d="" fill="#000000" transform="translate(0,0)"/>
<path d="" fill="#000000" transform="translate(0,0)"/>
<path d="" fill="#000000" transform="translate(0,0)"/>
<path d="" fill="#000000" transform="translate(0,0)"/>
<path d="" fill="#000000" transform="translate(0,0)"/>
<path d="" fill="#000000" transform="translate(0,0)"/>
<path d="" fill="#000000" transform="translate(0,0)"/>
<path d="" fill="#000000" transform="translate(0,0)"/>
<path d="" fill="#000000" transform="translate(0,0)"/>
<path d="" fill="#000000" transform="translate(0,0)"/>
<path d="" fill="#000000" transform="translate(0,0)"/>
<path d="" fill="#000000" transform="translate(0,0)"/>
<path d="" fill="#000000" transform="translate(0,0)"/>
<path d="" fill="#000000" transform="translate(0,0)"/>
<path d="" fill="#000000" transform="translate(0,0)"/>
<path d="" fill="#000000" transform="translate(0,0)"/>
<path d="" fill="#000000" transform="translate(0,0)"/>
<path d="" fill="#000000" transform="translate(0,0)"/>
</svg>
